<?xml version="1.0" encoding="utf-8"?>
<!-- Generator: Adobe Illustrator 28.0.0, SVG Export Plug-In . SVG Version: 6.00 Build 0)  -->
<svg version="1.1" id="Capa_1" xmlns="http://www.w3.org/2000/svg" xmlns:xlink="http://www.w3.org/1999/xlink" x="0px" y="0px"
	 viewBox="0 0 1079.3 1062.13" style="enable-background:new 0 0 1079.3 1062.13;" xml:space="preserve">
<style type="text/css">
	.st0{fill:#FFFFFF;}
</style>
<g>
	<path class="st0" d="M287.06,723.02c-4.73-3.19-9.5-7.09-13.81-11.82c-4.39-4.84-7.5-10.01-9.69-15.09
		c-9.14-21.18-28.19-36.45-50.68-41.59l-1.25-0.29c-18.26-4.17-37.73-1.97-53.77,7.69c-6.6,3.97-14.32,6.25-22.58,6.25
		c-24.85,0-44.88-20.64-43.87-45.72c0.9-22.32,19.18-40.85,41.49-42.03c15.96-0.84,30.16,6.85,38.48,18.92
		c10.46,15.17,25.59,26.5,43.55,30.61l4.98,1.14c21.97,5.02,45.44,0.05,62.43-14.75c13.81-12.03,32.48-18.63,52.68-16.46
		c31.85,3.42,57.49,29.24,60.72,61.1c2.6,25.6-8.88,48.68-27.62,62.47c-17.5,12.88-28.5,32.73-28.5,54.46v0.53
		c0,19.6,7.98,38.75,23.07,51.25c12.22,10.13,20,25.4,20,42.51c0,31.4-26.18,56.68-57.91,55.21c-28.35-1.32-51.58-24.82-52.59-53.19
		c-0.62-17.47,6.87-33.18,19-43.71c14.92-12.95,24.03-31.31,24.03-51.06v-2.23C315.23,755.66,304.97,735.07,287.06,723.02z
		 M519.18,691.94c1.71-20.92,15.6-38.87,35.43-45.75c44.73-15.51,76.17-59.45,72.65-110.22c-3.79-54.63-49.01-98.43-103.73-100.63
		c-12.88-0.52-25.27,1.22-36.84,4.84c-13.32,4.17-27.81-1.09-35.96-12.42l-0.1-0.13c-7.37-10.25-7.84-23.65-2.06-34.86
		c5.82-11.29,8.55-24.42,7.06-38.31c-3.36-31.23-28.57-56.46-59.81-59.8c-18.02-1.93-34.77,3.24-47.86,13.04
		c-18.83,14.11-42.8,19.44-65.54,13.38l-5.59-1.49c-17.83-4.75-32.62-16.51-42.79-31.9c-8-12.12-21.98-19.93-37.75-19.21
		c-21.56,0.98-39.45,18.56-40.78,40.1c-0.13,2.06-0.11,4.09,0.05,6.09c1.63,20.95-2.86,41.91-14.69,59.28l-2.65,3.9
		c-12.67,18.6-31.99,31.57-53.97,36.37c-0.46,0.1-0.92,0.21-1.37,0.32c-20.72,5.12-36.26,23.27-37.95,44.54
		c-2.34,29.51,20.92,54.19,49.94,54.19c11.2,0,21.53-3.68,29.86-9.9c13.31-9.93,30.08-13.98,46.26-10.27h0
		c15.87,3.63,29.81,13.75,37.01,28.36c8.08,16.41,24.87,27.75,44.35,27.96c26.63,0.3,49.38-21.1,50.62-47.7
		c1.34-28.76-21.58-52.5-50.04-52.5c-11.2,0-21.53,3.68-29.86,9.9c-13.31,9.93-30.08,13.98-46.26,10.27l-1.8-0.41
		c-15.29-3.5-28.19-13.69-35.13-27.75l-0.45-0.92c-3.69-7.48-3.07-16.36,1.63-23.25l34.72-50.98c5.08-7.45,13.52-11.91,22.54-11.9h0
		c6.77,0,13.16-1.57,18.85-4.37c17.04-8.4,36.3-11.18,54.65-6.29l3.47,0.92c23.01,6.13,41.92,22.73,50.5,44.95
		c7.05,18.25,23.73,37.79,62.6,40.21c3.69,0.23,7.31-0.01,10.84-0.6c12.23-2.05,24.54,3.08,31.78,13.15l0.07,0.09
		c8.24,11.47,8.06,26.85-0.17,38.32c-12.78,17.79-20.3,39.61-20.3,63.19c0,40.35,22.04,75.54,54.73,94.22
		c19.68,11.24,31.1,32.83,29.25,55.41l0,0c-1.27,15.47-8.04,30.26-19.9,40.27c-9.13,7.7-14.83,19.32-14.48,32.28
		c0.71,26.67,27.2,44.53,53.09,38.08c16.44-4.09,23.44-15.48,26.35-25.66c3.71-12.96,13.03-23.56,25.31-29.13l60.26-27.3
		c20.52-9.3,43.48-11.86,65.5-7.1c4.11,0.89,8.46,1.16,12.94,0.69c19.29-1.99,34.8-17.9,36.35-37.22
		c1.76-22.01-13.96-40.72-34.77-43.74c-4.64-0.67-9.39-0.32-13.95,0.75c-7.99,1.87-20.03,6.73-26.97,19.31
		c-11.47,20.79-30.31,36.53-51.93,46.33l-63.68,28.86C515.87,738.15,519.18,691.94,519.18,691.94z M755.56,155.31
		c-22.51-0.29-42.7,9.56-56.33,25.27c-14.71,16.95-37.33,24.83-59.62,22.19l-2.08-0.25c-21.79-2.57-41.13-15.24-52.08-34.25
		c-11.58-20.1-33.26-33.64-58.13-33.64c-22.75,0-42.83,11.33-54.96,28.64c-13.05,18.64-33.29,30.95-56.01,32.16l-5.78,0.31
		c-15.24,0.81-30.05-3.65-43.2-11.4c-4.55-2.68-9.85-4.23-15.51-4.26c-16.55-0.08-30.63,13.5-31.13,30.04
		c-0.53,17.55,13.55,31.94,30.98,31.94c7.37,0,14.13-2.58,19.44-6.88c11.5-9.32,25.91-14.29,40.69-15.07l5.09-0.27
		c22.73-1.2,44.65,8.3,59.45,25.6c12.29,14.37,30.55,23.49,50.95,23.49c18.85,0,35.89-7.77,48.09-20.29
		c15.56-15.97,37.2-24.5,59.34-21.88l0.63,0.07c22.91,2.71,43.7,15.87,54.53,36.23c12.31,23.15,36.64,38.92,64.69,38.92
		c41.83,0,75.48-35.01,73.24-77.33C825.81,186.54,793.74,155.8,755.56,155.31z M908.01,523.92l-26.78,16.42
		c-20.58,12.62-47.49,6.28-60.28-14.2l0,0l-2.09-3.48c-11.59-19.29-14.79-42.77-7.53-64.06c2.9-8.52,3.93-17.91,2.59-27.69
		c-3.64-26.45-25.06-47.6-51.54-50.95c-12.44-1.57-24.24,0.69-34.39,5.75c-14.77,7.37-32.26,6.77-46.66-1.28l-17.26-9.65
		c-12.91-7.22-22.65-19.44-25.59-33.93c-6.43-31.62-40.9-31.62-40.9-31.62c-25,0-44.94,21.66-42.08,47.23
		c2.13,19.04,17.31,34.57,36.3,37.09c6.91,0.92,13.54,0.16,19.56-1.92c13.21-4.56,27.77-2.84,39.97,3.98l18.07,10.1
		c14.66,8.2,23.91,23.18,25.61,39.89c0.02,0.2,0.04,0.4,0.06,0.6c2.86,25.7,22.6,46.89,47.96,51.94c0.22,0.04,0.44,0.09,0.66,0.13
		c22.45,4.22,42.32,17.08,54.08,36.66l2.47,4.11c7.52,12.51,11.1,26.87,11.18,41.47c0.01,1.93,0.22,3.92,0.65,5.93
		c2.27,10.69,10.98,19.23,21.72,21.29c0,0,10.98,2.88,22.77-5.64c4.17-3.01,6.68-7.38,8.2-11.58c3.31-9.17,9.3-17.12,17.61-22.22
		l38.12-23.37c20.71-12.7,44.56-19.38,68.85-19.29l4.94,0.02c22.47,0,40.64-18.39,40.28-40.94c-0.26-16.24-10.88-30.6-25.91-36.75
		c-0.35-0.15-0.71-0.28-1.06-0.42c-17.26-6.52-32.22-17.97-41.63-33.84l-2.42-4.08c-7.5-12.64-8.09-27.92-2.71-41.6
		c2.99-7.6,4.19-16.1,3.09-24.99c-2.8-22.51-20.89-40.74-43.39-43.68c-31.76-4.15-58.74,21.17-57.4,52.41
		c1.03,23.96,19.4,44.33,43.12,47.83c0.18,0.03,0.35,0.05,0.53,0.08c15.13,2.08,28.67,10.44,36.46,23.58l13.86,23.37
		c3.91,6.59,4.24,14.65,0.97,21.57c-0.06,0.13-0.12,0.25-0.18,0.38C947.24,491.58,929.62,510.67,908.01,523.92z"/>
</g>
</svg>
