<?xml version="1.0" encoding="utf-8"?>
<svg version="1.1" id="Capa_1" xmlns="http://www.w3.org/2000/svg" xmlns:xlink="http://www.w3.org/1999/xlink" x="0px" y="0px"
	 viewBox="0 0 1079.3 302" style="enable-background:new 0 0 1079.3 302;" xml:space="preserve">
<style type="text/css">
	.st0{fill:#0A182D;}
	.st1{fill:url(#SVGID_1_);}
</style>
<g>
	<g>
		<g>
			<path class="st0" d="M360.38,101.05c0.54-0.46,1.12-0.75,1.72-0.88c0.6-0.12,1.18-0.19,1.72-0.19h9.46c0.75,0,1.4,0.14,1.94,0.41
				c0.54,0.27,1,0.64,1.38,1.1c0.38,0.46,0.68,0.98,0.91,1.56c0.23,0.58,0.45,1.19,0.66,1.81l1.32,5.5c0.63-1.29,1.64-2.62,3.04-4
				c1.4-1.37,3.13-2.62,5.2-3.75c2.07-1.12,4.46-2.05,7.17-2.78c2.72-0.73,5.74-1.09,9.09-1.09c4.76,0,9.01,0.92,12.75,2.75
				c3.74,1.83,6.91,4.33,9.52,7.5c2.61,3.17,4.6,6.86,5.95,11.1c1.36,4.23,2.04,8.75,2.04,13.55v41.04c0,1.59-0.34,2.79-1.03,3.6
				c-0.69,0.81-1.78,1.22-3.29,1.22h-14.47c-1.8,0-3.03-0.3-3.7-0.91c-0.67-0.61-1-1.78-1-3.54v-40.79c0-1.8-0.41-3.5-1.22-5.11
				c-0.82-1.61-1.89-3.03-3.23-4.26c-1.34-1.23-2.85-2.2-4.54-2.91c-1.69-0.71-3.41-1.06-5.17-1.06c-1.5,0-3.04,0.33-4.61,1
				c-1.57,0.67-3.01,1.6-4.32,2.79c-1.32,1.19-2.42,2.59-3.32,4.2c-0.9,1.61-1.41,3.35-1.54,5.23v40.73c0,0.71-0.14,1.42-0.41,2.13
				s-0.68,1.25-1.22,1.63c-0.54,0.33-1.05,0.56-1.54,0.69c-0.48,0.12-1.03,0.19-1.66,0.19h-14.16c-1.8,0-3.09-0.44-3.88-1.32
				c-0.79-0.88-1.19-2.05-1.19-3.51v-70.07c0-0.79,0.18-1.52,0.53-2.19c0.35-0.67,0.85-1.19,1.47-1.56L360.38,101.05z"/>
			<path class="st0" d="M515.96,169.98c-3.68,3.38-7.81,6.03-12.41,7.93c-4.6,1.9-9.46,2.85-14.6,2.85
				c-5.72,0-11.13-1.04-16.23-3.13c-5.1-2.09-9.57-4.98-13.41-8.68c-3.84-3.7-6.89-8.05-9.15-13.06s-3.38-10.46-3.38-16.35
				c0-3.68,0.45-7.24,1.35-10.68c0.9-3.45,2.17-6.67,3.82-9.68c1.65-3.01,3.65-5.77,6.01-8.3c2.36-2.53,5-4.69,7.93-6.48
				c2.92-1.8,6.1-3.2,9.52-4.2c3.42-1,7.04-1.5,10.84-1.5c3.47,0,6.83,0.46,10.09,1.38c3.26,0.92,6.32,2.21,9.18,3.88
				c2.86,1.67,5.48,3.68,7.86,6.02c2.38,2.34,4.43,4.9,6.14,7.68c1.71,2.78,3.04,5.74,3.98,8.9c0.94,3.15,1.41,6.4,1.41,9.74
				c0,2.17-0.03,3.95-0.09,5.33c-0.06,1.38-0.39,2.47-0.97,3.29c-0.59,0.81-1.56,1.38-2.91,1.69c-1.36,0.31-3.35,0.47-5.98,0.47
				h-45.11c0.42,2.67,1.26,4.91,2.54,6.7c1.27,1.8,2.75,3.23,4.42,4.29c1.67,1.06,3.45,1.83,5.33,2.29
				c1.88,0.46,3.66,0.69,5.33,0.69c1.5,0,3.05-0.16,4.64-0.47c1.59-0.31,3.12-0.73,4.61-1.25c1.48-0.52,2.84-1.13,4.07-1.82
				c1.23-0.69,2.22-1.41,2.98-2.16c0.67-0.54,1.24-0.95,1.72-1.22c0.48-0.27,0.99-0.41,1.54-0.41c0.54,0,1.1,0.19,1.66,0.56
				c0.56,0.38,1.2,0.92,1.91,1.63l6.64,7.52c0.46,0.54,0.75,1.03,0.88,1.47s0.19,0.89,0.19,1.35c0,0.84-0.23,1.56-0.69,2.16
				C517.13,168.99,516.58,169.52,515.96,169.98z M485.82,117.79c-1.63,0-3.21,0.32-4.73,0.97c-1.52,0.65-2.95,1.51-4.29,2.6
				c-1.34,1.09-2.54,2.32-3.6,3.7c-1.06,1.38-1.93,2.78-2.6,4.2h32.02c-0.88-1.63-1.83-3.13-2.85-4.51
				c-1.02-1.38-2.19-2.59-3.51-3.63c-1.32-1.04-2.82-1.86-4.51-2.44C490.05,118.08,488.07,117.79,485.82,117.79z"/>
			<path class="st0" d="M611.89,178.45c-0.54,0.46-1.12,0.75-1.72,0.88c-0.61,0.13-1.18,0.19-1.72,0.19h-9.46
				c-0.75,0-1.4-0.14-1.94-0.41c-0.54-0.27-1-0.64-1.38-1.09c-0.38-0.46-0.69-0.98-0.94-1.56c-0.25-0.58-0.46-1.19-0.63-1.81
				l-1.32-6.12c-0.63,1.29-1.67,2.65-3.13,4.09c-1.46,1.44-3.27,2.76-5.42,3.97c-2.15,1.21-4.63,2.21-7.43,3
				c-2.8,0.79-5.85,1.19-9.15,1.19c-4.76,0-8.98-0.92-12.66-2.76c-3.68-1.84-6.78-4.34-9.3-7.52c-2.53-3.17-4.44-6.88-5.73-11.12
				c-1.29-4.24-1.94-8.76-1.94-13.57v-41.04c0-1.59,0.34-2.79,1.03-3.6c0.69-0.81,1.78-1.22,3.29-1.22h14.47
				c1.8,0,3.03,0.3,3.7,0.91c0.67,0.61,1,1.79,1,3.54v40.83c0,1.8,0.34,3.5,1.03,5.11c0.69,1.61,1.62,3.03,2.79,4.27
				c1.17,1.23,2.54,2.21,4.1,2.92c1.57,0.71,3.23,1.07,4.98,1.07c1.5,0,3.13-0.25,4.89-0.75s3.38-1.29,4.89-2.35
				c1.5-1.07,2.76-2.44,3.76-4.11c1-1.67,1.5-3.68,1.5-6.02v-40.77c0-0.71,0.14-1.42,0.41-2.13c0.27-0.71,0.68-1.26,1.22-1.63
				c0.54-0.33,1.05-0.56,1.54-0.69c0.48-0.12,1.03-0.19,1.66-0.19h14.16c1.79,0,3.09,0.44,3.88,1.32c0.79,0.88,1.19,2.05,1.19,3.51
				v70.12c0,0.79-0.18,1.53-0.53,2.19s-0.84,1.19-1.47,1.57L611.89,178.45z"/>
			<path class="st0" d="M628.55,104.57c0-0.79,0.15-1.48,0.44-2.07c0.29-0.58,0.68-1.06,1.16-1.44c0.48-0.38,1.02-0.66,1.63-0.85
				c0.61-0.19,1.2-0.28,1.79-0.28h9.46c1.04,0,1.88,0.31,2.51,0.94c0.63,0.63,1.16,1.42,1.6,2.38c0.44,0.96,0.82,2.03,1.16,3.19
				c0.33,1.17,0.73,2.3,1.19,3.38c1.25-1.38,2.5-2.74,3.73-4.07c1.23-1.34,2.56-2.53,3.98-3.57c1.42-1.04,2.98-1.89,4.67-2.54
				c1.69-0.65,3.62-0.97,5.8-0.97c2.26,0,4.27,0.17,6.05,0.5c1.78,0.33,3.45,0.83,5.04,1.47c1.59,0.65,3.16,1.47,4.73,2.48
				c1.57,1,3.27,2.17,5.11,3.51c1.79,1.04,2.69,2.28,2.69,3.7c0,0.92-0.36,1.99-1.07,3.2l-5.7,9.71c-1.13,1.63-2.53,2.44-4.2,2.44
				c-0.84,0-1.78-0.23-2.82-0.69c-1.8-1.75-3.62-3.06-5.48-3.92c-1.86-0.86-3.98-1.28-6.36-1.28c-1.63,0-3.06,0.23-4.29,0.69
				c-1.23,0.46-2.35,1.11-3.35,1.94c-1,0.84-1.94,1.84-2.82,3.01c-0.88,1.17-1.76,2.46-2.63,3.88v45.36c0,1.59-0.39,2.79-1.16,3.6
				c-0.77,0.81-2.06,1.22-3.85,1.22h-14.1c-3.26,0-4.89-1.61-4.89-4.82V104.57z"/>
			<path class="st0" d="M696.35,139.78c0-3.84,0.49-7.54,1.47-11.09c0.98-3.55,2.36-6.84,4.13-9.87c1.78-3.03,3.91-5.78,6.39-8.27
				c2.49-2.49,5.25-4.61,8.3-6.36c3.05-1.75,6.34-3.11,9.87-4.07c3.53-0.96,7.22-1.44,11.06-1.44c5.68,0,11.02,1.05,16.01,3.16
				c4.99,2.11,9.34,5.01,13.03,8.71c3.7,3.7,6.62,8.04,8.77,13.03c2.15,4.99,3.23,10.39,3.23,16.2c0,3.84-0.49,7.53-1.47,11.06
				c-0.98,3.53-2.36,6.82-4.13,9.87c-1.78,3.05-3.91,5.82-6.39,8.3c-2.49,2.49-5.25,4.62-8.3,6.39c-3.05,1.78-6.32,3.14-9.81,4.1
				c-3.49,0.96-7.13,1.44-10.93,1.44c-3.84,0-7.53-0.48-11.06-1.44c-3.53-0.96-6.82-2.33-9.87-4.1c-3.05-1.78-5.82-3.9-8.3-6.39
				c-2.49-2.48-4.62-5.25-6.39-8.3c-1.78-3.05-3.15-6.34-4.13-9.87C696.84,147.31,696.35,143.63,696.35,139.78z M719.22,139.78
				c0,2.76,0.43,5.34,1.28,7.74c0.86,2.4,2.07,4.48,3.63,6.23c1.57,1.75,3.47,3.14,5.7,4.17c2.23,1.02,4.75,1.54,7.55,1.54
				c2.72,0,5.17-0.51,7.36-1.54c2.19-1.02,4.05-2.41,5.58-4.17c1.53-1.75,2.7-3.83,3.51-6.23c0.81-2.4,1.22-4.98,1.22-7.74
				c0-2.67-0.41-5.22-1.22-7.65c-0.81-2.42-1.98-4.55-3.51-6.39c-1.52-1.84-3.38-3.29-5.58-4.35c-2.19-1.06-4.65-1.6-7.36-1.6
				c-2.8,0-5.32,0.53-7.55,1.6c-2.24,1.06-4.14,2.52-5.7,4.35c-1.57,1.84-2.78,3.97-3.63,6.39
				C719.64,134.56,719.22,137.11,719.22,139.78z"/>
			<path class="st0" d="M802.99,154.76c1.13,1.13,2.35,2.08,3.67,2.85c1.32,0.77,2.58,1.4,3.79,1.88c1.21,0.48,2.28,0.83,3.2,1.03
				c0.92,0.21,1.54,0.31,1.88,0.31c0.79,0,1.81-0.03,3.04-0.09c1.23-0.06,2.41-0.25,3.54-0.56c1.13-0.31,2.1-0.82,2.91-1.53
				c0.81-0.71,1.22-1.71,1.22-3.01c0-1.17-0.23-2.1-0.69-2.79s-1.13-1.27-2-1.76c-0.88-0.48-1.95-0.91-3.23-1.28
				c-1.27-0.38-2.71-0.82-4.29-1.32c-5.01-1.34-9.15-2.94-12.41-4.82c-3.26-1.88-5.84-3.98-7.74-6.3c-1.9-2.32-3.23-4.81-3.98-7.49
				c-0.75-2.67-1.13-5.49-1.13-8.46c0-3.47,0.69-6.62,2.07-9.46c1.38-2.84,3.34-5.27,5.89-7.3s5.6-3.59,9.15-4.7
				c3.55-1.11,7.5-1.66,11.84-1.66c2.63,0,5.1,0.22,7.39,0.66s4.49,1.13,6.58,2.07s4.12,2.15,6.11,3.63
				c1.98,1.48,3.96,3.25,5.92,5.29c0.71,0.84,1.08,1.62,1.1,2.35c0.02,0.73-0.45,1.51-1.41,2.35c-1.63,1.34-3.19,2.65-4.67,3.95
				c-1.48,1.29-3.02,2.74-4.61,4.32c-0.5,0.42-1,0.68-1.5,0.78c-0.5,0.11-0.98,0.09-1.44-0.03c-0.46-0.13-0.9-0.33-1.32-0.63
				c-0.42-0.29-0.79-0.65-1.13-1.06c-1.46-1.63-3.13-2.72-5.01-3.29c-1.88-0.56-3.63-0.85-5.26-0.85c-2.05,0-3.68,0.36-4.89,1.07
				c-1.21,0.71-1.78,1.8-1.69,3.26c0.08,1.09,0.49,1.93,1.22,2.54c0.73,0.61,1.63,1.1,2.69,1.47c1.06,0.38,2.19,0.68,3.38,0.91
				c1.19,0.23,2.29,0.49,3.29,0.78c3.76,1.21,7.21,2.53,10.34,3.95c3.13,1.42,5.85,3.16,8.15,5.23s4.08,4.54,5.36,7.43
				c1.27,2.88,1.91,6.39,1.91,10.53c0,4.13-0.83,7.83-2.47,11.09c-1.65,3.26-3.92,5.99-6.8,8.21c-2.88,2.21-6.3,3.91-10.24,5.07
				c-3.95,1.17-8.2,1.76-12.75,1.76c-2.59,0-5.22-0.23-7.9-0.69c-2.67-0.46-5.26-1.2-7.77-2.22c-2.51-1.02-4.89-2.34-7.14-3.95
				c-2.26-1.61-4.26-3.56-6.02-5.86c-0.46-0.59-0.8-1.2-1.03-1.85c-0.23-0.65-0.33-1.28-0.31-1.91s0.15-1.2,0.38-1.72
				c0.23-0.52,0.6-0.97,1.1-1.35l8.08-8.08c1-0.83,1.89-1.13,2.66-0.88C800.78,152.88,801.78,153.59,802.99,154.76z"/>
			<path class="st0" d="M861.2,139.78c0-3.84,0.49-7.54,1.47-11.09c0.98-3.55,2.36-6.84,4.13-9.87c1.78-3.03,3.91-5.78,6.39-8.27
				c2.49-2.49,5.25-4.61,8.3-6.36c3.05-1.75,6.34-3.11,9.87-4.07c3.53-0.96,7.22-1.44,11.06-1.44c5.68,0,11.02,1.05,16.01,3.16
				c4.99,2.11,9.34,5.01,13.03,8.71c3.7,3.7,6.62,8.04,8.77,13.03c2.15,4.99,3.23,10.39,3.23,16.2c0,3.84-0.49,7.53-1.47,11.06
				c-0.98,3.53-2.36,6.82-4.13,9.87c-1.78,3.05-3.91,5.82-6.39,8.3c-2.49,2.49-5.25,4.62-8.3,6.39c-3.05,1.78-6.32,3.14-9.81,4.1
				c-3.49,0.96-7.13,1.44-10.93,1.44c-3.84,0-7.53-0.48-11.06-1.44c-3.53-0.96-6.82-2.33-9.87-4.1c-3.05-1.78-5.82-3.9-8.3-6.39
				c-2.49-2.48-4.62-5.25-6.39-8.3c-1.78-3.05-3.15-6.34-4.13-9.87C861.69,147.31,861.2,143.63,861.2,139.78z M884.07,139.78
				c0,2.76,0.43,5.34,1.28,7.74c0.86,2.4,2.07,4.48,3.63,6.23c1.57,1.75,3.47,3.14,5.7,4.17c2.23,1.02,4.75,1.54,7.55,1.54
				c2.72,0,5.17-0.51,7.36-1.54c2.19-1.02,4.05-2.41,5.58-4.17c1.53-1.75,2.7-3.83,3.51-6.23c0.81-2.4,1.22-4.98,1.22-7.74
				c0-2.67-0.41-5.22-1.22-7.65c-0.81-2.42-1.98-4.55-3.51-6.39c-1.52-1.84-3.38-3.29-5.58-4.35s-4.65-1.6-7.36-1.6
				c-2.8,0-5.32,0.53-7.55,1.6c-2.24,1.06-4.14,2.52-5.7,4.35c-1.57,1.84-2.78,3.97-3.63,6.39
				C884.49,134.56,884.07,137.11,884.07,139.78z"/>
			<path class="st0" d="M963.52,101.06c0-3.88,0.84-7.54,2.5-10.97c1.67-3.42,3.91-6.42,6.71-8.99c2.8-2.57,6.01-4.6,9.65-6.08
				c3.63-1.48,7.43-2.22,11.4-2.22h1.25c1.42,0,2.52,0.43,3.29,1.28c0.77,0.86,1.16,2.04,1.16,3.54v11.97
				c0,1.55-0.41,2.83-1.22,3.85c-0.81,1.02-1.89,1.54-3.23,1.54h-1.25c-0.88,0-1.71,0.16-2.51,0.47c-0.79,0.31-1.5,0.74-2.13,1.28
				c-0.63,0.54-1.13,1.18-1.5,1.91c-0.38,0.73-0.56,1.54-0.56,2.41v7.21h9.84c1.42,0,2.52,0.39,3.29,1.16
				c0.77,0.77,1.16,2,1.16,3.66v11.47c0,1.8-0.39,3.11-1.16,3.95c-0.77,0.84-1.87,1.25-3.29,1.25h-9.84v44.93
				c0,1.59-0.53,2.79-1.6,3.6c-1.06,0.81-2.22,1.22-3.48,1.22h-13.53c-1.5,0-2.71-0.47-3.6-1.41c-0.9-0.94-1.35-2.08-1.35-3.41
				v-44.93h-6.45c-1.46,0-2.64-0.42-3.54-1.25c-0.9-0.83-1.35-2.15-1.35-3.95v-11.47c0-1.67,0.45-2.89,1.35-3.66
				c0.9-0.77,2.08-1.16,3.54-1.16h6.45V101.06z"/>
			<path class="st0" d="M1015.08,87.53c0-1.29,0.43-2.27,1.28-2.91c0.86-0.65,2.08-1.26,3.67-1.85l14.22-4.95
				c0.21-0.04,0.41-0.06,0.6-0.06s0.37,0,0.53,0c1.55,0,2.58,0.45,3.1,1.35c0.52,0.9,0.78,2.08,0.78,3.54l-0.06,17.23h8.59
				c1.34,0,2.42,0.4,3.26,1.19c0.83,0.79,1.25,1.99,1.25,3.57v12.09c0,1.75-0.42,3.04-1.25,3.85c-0.84,0.81-1.92,1.22-3.26,1.22
				h-8.59l0.06,52.88c0,1.59-0.46,2.79-1.38,3.6c-0.92,0.81-2.19,1.22-3.82,1.22h-14.16c-3.22,0-4.82-1.61-4.82-4.82l-0.06-52.88
				h-6.45c-3.22,0-4.82-1.69-4.82-5.08v-12.09c0-3.17,1.61-4.76,4.82-4.76h6.45L1015.08,87.53z"/>
		</g>
	</g>
	<linearGradient id="SVGID_1_" gradientUnits="userSpaceOnUse" x1="171.0975" y1="266.4283" x2="171.0975" y2="35.5717">
		<stop  offset="0" style="stop-color:#1D335C"/>
		<stop  offset="1" style="stop-color:#507399"/>
	</linearGradient>
	<path class="st1" d="M97.55,206.89c-1.38-0.93-2.77-2.06-4.02-3.44c-1.28-1.41-2.18-2.92-2.82-4.39
		c-2.66-6.17-8.21-10.61-14.76-12.11l-0.36-0.08c-5.32-1.21-10.98-0.57-15.66,2.24c-1.92,1.16-4.17,1.82-6.57,1.82
		c-7.24,0-13.07-6.01-12.77-13.31c0.26-6.5,5.59-11.89,12.08-12.24c4.65-0.24,8.78,1.99,11.2,5.51c3.05,4.42,7.45,7.72,12.68,8.91
		l1.45,0.33c6.4,1.46,13.23,0.02,18.18-4.29c4.02-3.5,9.46-5.42,15.34-4.79c9.27,1,16.74,8.51,17.68,17.79
		c0.76,7.46-2.59,14.17-8.04,18.19c-5.1,3.75-8.3,9.53-8.3,15.86v0.16c0,5.71,2.32,11.28,6.72,14.92c3.56,2.95,5.82,7.4,5.82,12.38
		c0,9.14-7.62,16.5-16.86,16.07c-8.26-0.38-15.02-7.23-15.31-15.49c-0.18-5.09,2-9.66,5.53-12.73c4.34-3.77,7-9.12,7-14.87v-0.65
		C105.75,216.4,102.76,210.4,97.55,206.89z M165.14,197.84c0.5-6.09,4.54-11.32,10.32-13.32c13.03-4.52,22.18-17.31,21.15-32.09
		c-1.1-15.91-14.27-28.66-30.2-29.3c-3.75-0.15-7.36,0.35-10.73,1.41c-3.88,1.21-8.1-0.32-10.47-3.62l-0.03-0.04
		c-2.14-2.98-2.28-6.89-0.6-10.15c1.69-3.29,2.49-7.11,2.06-11.16c-0.98-9.09-8.32-16.44-17.41-17.41
		c-5.25-0.56-10.13,0.94-13.94,3.8c-5.48,4.11-12.46,5.66-19.08,3.9l-1.63-0.43c-5.19-1.38-9.5-4.81-12.46-9.29
		c-2.33-3.53-6.4-5.8-10.99-5.59c-6.28,0.29-11.49,5.4-11.87,11.68c-0.04,0.6-0.03,1.19,0.01,1.77c0.47,6.1-0.83,12.2-4.28,17.26
		l-0.77,1.13c-3.69,5.41-9.31,9.19-15.71,10.59c-0.13,0.03-0.27,0.06-0.4,0.09c-6.03,1.49-10.56,6.77-11.05,12.97
		c-0.68,8.59,6.09,15.78,14.54,15.78c3.26,0,6.27-1.07,8.69-2.88c3.87-2.89,8.76-4.07,13.47-2.99h0c4.62,1.06,8.68,4,10.78,8.26
		c2.35,4.78,7.24,8.08,12.91,8.14c7.76,0.09,14.38-6.14,14.74-13.89c0.39-8.37-6.28-15.29-14.57-15.29c-3.26,0-6.27,1.07-8.69,2.88
		c-3.87,2.89-8.76,4.07-13.47,2.99l-0.52-0.12c-4.45-1.02-8.21-3.99-10.23-8.08l-0.13-0.27c-1.07-2.18-0.89-4.76,0.47-6.77
		l10.11-14.84c1.48-2.17,3.94-3.47,6.56-3.46h0c1.97,0,3.83-0.46,5.49-1.27c4.96-2.44,10.57-3.26,15.91-1.83l1.01,0.27
		c6.7,1.78,12.21,6.62,14.7,13.09c2.05,5.32,6.91,11,18.23,11.71c1.07,0.07,2.13,0,3.16-0.18c3.56-0.6,7.15,0.9,9.25,3.83l0.02,0.03
		c2.4,3.34,2.35,7.82-0.05,11.16c-3.72,5.18-5.91,11.53-5.91,18.4c0,11.75,6.42,22,15.94,27.44c5.73,3.27,9.06,9.56,8.52,16.14l0,0
		c-0.37,4.5-2.34,8.81-5.8,11.72c-2.66,2.24-4.32,5.63-4.22,9.4c0.21,7.76,7.92,12.97,15.46,11.09c4.79-1.19,6.83-4.51,7.67-7.47
		c1.08-3.77,3.79-6.86,7.37-8.48l17.55-7.95c5.97-2.71,12.66-3.45,19.07-2.07c1.2,0.26,2.46,0.34,3.77,0.2
		c5.62-0.58,10.13-5.21,10.58-10.84c0.51-6.41-4.07-11.86-10.12-12.74c-1.35-0.2-2.73-0.09-4.06,0.22
		c-2.33,0.55-5.83,1.96-7.85,5.62c-3.34,6.05-8.83,10.64-15.12,13.49l-18.54,8.4C164.17,211.3,165.14,197.84,165.14,197.84z
		 M233.96,41.59c-6.55-0.09-12.43,2.78-16.4,7.36c-4.28,4.94-10.87,7.23-17.36,6.46l-0.61-0.07c-6.34-0.75-11.98-4.44-15.16-9.97
		c-3.37-5.85-9.68-9.79-16.93-9.79c-6.63,0-12.47,3.3-16,8.34c-3.8,5.43-9.69,9.01-16.31,9.36l-1.68,0.09
		c-4.44,0.23-8.75-1.06-12.58-3.32c-1.32-0.78-2.87-1.23-4.52-1.24c-4.82-0.02-8.92,3.93-9.06,8.75c-0.15,5.11,3.94,9.3,9.02,9.3
		c2.15,0,4.11-0.75,5.66-2c3.35-2.71,7.54-4.16,11.85-4.39l1.48-0.08c6.62-0.35,13,2.42,17.31,7.45c3.58,4.18,8.89,6.84,14.84,6.84
		c5.49,0,10.45-2.26,14-5.91c4.53-4.65,10.83-7.13,17.28-6.37l0.18,0.02c6.67,0.79,12.72,4.62,15.88,10.55
		c3.58,6.74,10.67,11.33,18.84,11.33c12.18,0,21.98-10.19,21.33-22.52C254.42,50.68,245.08,41.73,233.96,41.59z M278.35,148.92
		l-7.8,4.78c-5.99,3.67-13.83,1.83-17.55-4.13l0,0l-0.61-1.01c-3.37-5.62-4.31-12.45-2.19-18.65c0.85-2.48,1.15-5.21,0.75-8.06
		c-1.06-7.7-7.3-13.86-15.01-14.84c-3.62-0.46-7.06,0.2-10.01,1.67c-4.3,2.14-9.39,1.97-13.59-0.37l-5.03-2.81
		c-3.76-2.1-6.59-5.66-7.45-9.88c-1.87-9.21-11.91-9.21-11.91-9.21c-7.28,0-13.08,6.31-12.25,13.75c0.62,5.54,5.04,10.06,10.57,10.8
		c2.01,0.27,3.94,0.05,5.7-0.56c3.85-1.33,8.09-0.83,11.64,1.16l5.26,2.94c4.27,2.39,6.96,6.75,7.46,11.61
		c0.01,0.06,0.01,0.12,0.02,0.17c0.83,7.48,6.58,13.65,13.97,15.12c0.06,0.01,0.13,0.03,0.19,0.04c6.54,1.23,12.32,4.97,15.75,10.67
		l0.72,1.2c2.19,3.64,3.23,7.82,3.25,12.07c0,0.56,0.06,1.14,0.19,1.73c0.66,3.11,3.2,5.6,6.32,6.2c0,0,3.2,0.84,6.63-1.64
		c1.21-0.88,1.95-2.15,2.39-3.37c0.96-2.67,2.71-4.99,5.13-6.47l11.1-6.81c6.03-3.7,12.97-5.64,20.05-5.62l1.44,0.01
		c6.54,0,11.83-5.36,11.73-11.92c-0.07-4.73-3.17-8.91-7.54-10.7c-0.1-0.04-0.21-0.08-0.31-0.12c-5.03-1.9-9.38-5.23-12.12-9.85
		l-0.7-1.19c-2.18-3.68-2.36-8.13-0.79-12.11c0.87-2.21,1.22-4.69,0.9-7.28c-0.82-6.56-6.08-11.86-12.63-12.72
		c-9.25-1.21-17.1,6.16-16.71,15.26c0.3,6.98,5.65,12.91,12.56,13.93c0.05,0.01,0.1,0.01,0.15,0.02c4.41,0.6,8.35,3.04,10.62,6.87
		l4.04,6.81c1.14,1.92,1.23,4.27,0.28,6.28c-0.02,0.04-0.03,0.07-0.05,0.11C289.78,139.5,284.65,145.06,278.35,148.92z"/>
</g>
</svg>
