<svg width="333" height="257" viewBox="0 0 333 257" fill="none" xmlns="http://www.w3.org/2000/svg">
<path d="M212.449 92.1147H177.359V106.942H212.449V92.1147Z" fill="white"/>
<path d="M208.303 95.9104H181.505V96.6721H208.303V95.9104Z" fill="#37474F"/>
<path d="M208.303 99.1477H181.505V99.9094H208.303V99.1477Z" fill="#37474F"/>
<path d="M208.303 102.385H181.505V103.146H208.303V102.385Z" fill="#37474F"/>
<path d="M212.725 107.174H177.083V91.8833H212.725V107.174ZM177.635 106.71H212.173V92.3466H177.635V106.71Z" fill="#3F3D56"/>
<path d="M187.233 73.6991C179.805 73.7042 172.521 71.9706 166.204 68.6933L166.043 68.61L166.143 68.4754L187.128 39.9976H227.237V40.1559C227.237 58.6518 209.292 73.6991 187.233 73.6991Z" fill="#37474F"/>
<path d="M161.5 61.6071L161.371 61.5402C154.29 57.8694 149.186 52.0371 147.134 45.2725C145.081 38.5079 146.241 31.3394 150.368 25.2776L150.443 25.1675L178.46 38.5913L161.5 61.6071Z" fill="#F1F1F1"/>
<path d="M227.238 35.5044H186.998L195.673 2.55298L195.857 2.58693C204.754 4.2358 212.714 8.3813 218.42 14.338C224.126 20.2947 227.237 27.7058 227.238 35.3461V35.5044Z" fill="#37474F"/>
<path d="M180.589 30.3146L153.325 17.2512L153.398 17.1439C156.703 12.3024 161.766 8.47244 167.849 6.21202C173.931 3.9516 180.716 3.37885 187.214 4.57722L187.357 4.60376L180.589 30.3146Z" fill="#F1F1F1"/>
<path d="M282.63 0.231689H247.54V15.0588H282.63V0.231689Z" fill="white"/>
<path d="M278.484 4.0271H251.686V4.7888H278.484V4.0271Z" fill="#37474F"/>
<path d="M278.484 7.26465H251.686V8.02635H278.484V7.26465Z" fill="#37474F"/>
<path d="M278.484 10.5017H251.686V11.2634H278.484V10.5017Z" fill="#37474F"/>
<path d="M282.906 15.2905H247.264V0H282.906V15.2905ZM247.816 14.8271H282.354V0.463347H247.816V14.8271Z" fill="#3F3D56"/>
<path d="M195.256 53.7412H194.703V91.8834H195.256V53.7412Z" fill="#3F3D56"/>
<path d="M247.404 7.66293L205.92 23.3958L206.148 23.8179L247.631 8.08511L247.404 7.66293Z" fill="#3F3D56"/>
<path d="M132.317 250.498H46.2853V171.436H132.317V250.498Z" fill="white"/>
<path d="M132.317 250.498H46.2853V171.436H132.317V250.498ZM46.9735 249.921H131.629V172.013H46.9735V249.921Z" fill="#3F3D56"/>
<path d="M120.617 243.03H102.722V243.638H120.617V243.03Z" fill="#3F3D56"/>
<path d="M120.617 244.855H102.722V245.463H120.617V244.855Z" fill="#3F3D56"/>
<path d="M120.617 246.68H102.722V247.288H120.617V246.68Z" fill="#3F3D56"/>
<path d="M89.3014 185.574V191.922C93.7935 191.922 98.1847 193.039 101.92 195.131C105.655 197.224 108.566 200.198 110.285 203.678C112.004 207.158 112.454 210.987 111.577 214.681C110.701 218.376 108.538 221.769 105.362 224.432L110.715 228.921C114.95 225.37 117.834 220.845 119.003 215.92C120.171 210.994 119.572 205.889 117.28 201.249C114.987 196.609 111.106 192.643 106.126 189.853C101.146 187.063 95.2909 185.574 89.3014 185.574Z" fill="#E6E6E6"/>
<path d="M110.715 228.921L105.361 224.433C101.478 227.689 96.3192 229.655 90.8397 229.967C85.3602 230.278 79.9318 228.914 75.56 226.127L70.9776 231.182C76.8077 234.898 84.0459 236.716 91.352 236.3C98.658 235.885 105.537 233.263 110.715 228.921Z" fill="#575A89"/>
<path d="M66.5889 210.966C66.5889 208.465 67.1764 205.989 68.3178 203.678C69.4592 201.368 71.1322 199.268 73.2412 197.5C75.3503 195.731 77.8541 194.329 80.6097 193.371C83.3653 192.414 86.3187 191.922 89.3014 191.922V185.574C82.9619 185.574 76.7823 187.242 71.6335 190.343C66.4848 193.444 62.6266 197.822 60.6027 202.859C58.5789 207.897 58.4915 213.34 60.3528 218.421C62.2141 223.502 65.9304 227.966 70.9777 231.182L75.56 226.127C72.7699 224.352 70.508 222.06 68.9515 219.429C67.395 216.799 66.5864 213.902 66.5889 210.966Z" fill="#37474F"/>
<path d="M293.551 252.096L287.989 252.096L285.344 234.11L293.552 234.11L293.551 252.096Z" fill="#FFB8B8"/>
<path d="M294.969 256.616L277.037 256.615V256.425C277.038 254.873 277.773 253.384 279.082 252.287C280.391 251.189 282.166 250.573 284.017 250.573H284.017L294.969 250.573L294.969 256.616Z" fill="#2F2E41"/>
<path d="M318.095 240.633L314.486 244.18L296.451 234.193L301.779 228.958L318.095 240.633Z" fill="#FFB8B8"/>
<path d="M323.117 242.662L311.477 254.099L311.304 253.975C309.896 252.968 309.023 251.533 308.877 249.985C308.731 248.438 309.324 246.906 310.525 245.725L310.526 245.725L317.635 238.739L323.117 242.662Z" fill="#2F2E41"/>
<path d="M254.064 163.645L252.333 177.031L322.312 176.194L291.794 134.499L266.876 133.749L254.064 163.645Z" fill="#2F2E41"/>
<path opacity="0.28" d="M254.064 163.645L252.333 177.031L322.312 176.194L291.794 134.499L266.876 133.749L254.064 163.645Z" fill="black"/>
<path d="M267.825 165.943L265.354 178.191V189.139L285.273 194.591C285.273 194.591 282.941 237.117 286.05 239.825L285.973 246.364L294.663 246.695L294.734 242.093L298.418 207.698L300.588 182.445L297.07 163.299L267.825 165.943Z" fill="#2F2E41"/>
<path d="M283.257 176.486L265.354 189.14C265.354 189.14 264.306 211.969 266.967 214.646C269.253 216.946 298.975 236.78 298.975 236.78C298.975 236.78 304.258 240.843 307.218 240.908C310.179 240.972 313.622 235.766 313.622 235.766L306.766 231.398C306.766 231.398 289.004 217.496 283.73 211.969C281.602 209.738 281.602 209.515 281.602 209.515L282.329 200.237L289.646 183.018L283.257 176.486Z" fill="#2F2E41"/>
<path d="M264.25 115.877L256.531 115.279L249.53 116.257L234.705 116.261L233.441 125.271L246.971 127.809L250.268 126.454L264.011 130.845L264.25 115.877Z" fill="#2F2E41"/>
<path d="M273.469 115.849C273.469 115.849 289.85 114.562 293.575 117.016C297.3 119.47 305.282 168.107 305.282 168.107L273.469 169.612L267.765 166.322L269.384 142.041L273.469 115.849Z" fill="#CCCCCC"/>
<path d="M278.469 115.546L260.399 115.879L243.552 179.708L256.856 182.163L278.469 115.546Z" fill="#2F2E41"/>
<path d="M291.314 115.007L305.548 118.742L304.74 144.968L322.312 176.322L301.655 178.147L285.327 144.29L291.314 115.007Z" fill="#2F2E41"/>
<path d="M314.786 179.508C315.285 179.139 315.682 178.684 315.948 178.173C316.214 177.662 316.344 177.109 316.327 176.551C316.311 175.994 316.149 175.447 315.853 174.948C315.557 174.448 315.134 174.01 314.614 173.663L317.477 165.287L311.831 162.586L307.985 174.462C307.348 175.234 307.069 176.174 307.204 177.106C307.338 178.038 307.875 178.896 308.713 179.518C309.551 180.14 310.632 180.482 311.752 180.48C312.871 180.478 313.951 180.132 314.786 179.508Z" fill="#FFB8B8"/>
<path d="M297.3 119.47L305.722 118.858C305.722 118.858 313.283 125.489 315.004 130.623C316.724 135.757 318.586 151.821 318.586 151.821L317.809 175.32L307.964 169.714L307.304 149.502L297.3 119.47Z" fill="#2F2E41"/>
<path d="M295.268 107.659C298.431 102.808 296.305 96.7252 290.519 94.0733C284.734 91.4214 277.48 93.2043 274.317 98.0555C271.154 102.907 273.28 108.989 279.066 111.641C284.852 114.293 292.106 112.51 295.268 107.659Z" fill="#FFB8B8"/>
<path d="M283.461 98.6779C281.895 98.3744 280.269 98.7107 278.682 98.9288C277.096 99.1468 275.348 99.2186 274.006 98.4764C273.014 97.9283 272.405 97.0214 271.833 96.1491C271.594 95.8376 271.435 95.488 271.365 95.1223C271.298 94.4771 271.788 93.8885 272.307 93.4095C274.721 91.1845 278.249 89.9666 281.807 89.5798C284.741 89.2131 287.739 89.5201 290.481 90.4679C293.182 91.4612 295.503 93.28 296.565 95.5868C297.054 96.7675 297.36 97.9961 297.474 99.2423C297.634 100.159 297.655 101.089 297.535 102.011C297.392 102.694 297.178 103.365 296.895 104.016L295.136 108.47C295.01 108.89 294.774 109.282 294.445 109.617C294.276 109.781 294.048 109.895 293.795 109.942C293.543 109.988 293.279 109.965 293.044 109.875C293.184 109.391 293.206 108.888 293.107 108.398C293.052 108.153 292.91 107.928 292.701 107.751C292.492 107.574 292.225 107.454 291.934 107.406C291.285 107.348 290.732 107.769 290.117 107.951C289.835 108.021 289.54 108.044 289.248 108.018C288.956 107.992 288.673 107.919 288.415 107.801C288.157 107.684 287.929 107.525 287.744 107.334C287.56 107.142 287.421 106.922 287.338 106.686C287.321 106.639 287.307 106.591 287.294 106.542C287.197 106.033 287.36 105.488 287.13 105.01C286.861 104.45 286.145 104.156 285.608 103.754C285.118 103.375 284.767 102.886 284.597 102.345C284.427 101.804 284.444 101.234 284.647 100.701C284.791 100.331 285.197 100.162 285.116 99.7366C285.009 99.178 284.027 98.7875 283.461 98.6779Z" fill="#2F2E41"/>
<path d="M259.645 201.445H173.613V122.383H259.645V201.445Z" fill="white"/>
<path d="M259.645 201.445H173.613V122.383H259.645V201.445ZM174.301 200.868H258.957V122.96H174.301V200.868Z" fill="#3F3D56"/>
<path d="M201.487 170.715H186.002V191.49H201.487V170.715Z" fill="#575A89"/>
<path d="M223.856 156.576H208.37V191.491H223.856V156.576Z" fill="#E6E6E6"/>
<path d="M246.224 140.129H230.738V191.491H246.224V140.129Z" fill="#37474F"/>
<path d="M251.386 192.068H181.872V131.761H182.56V191.491H251.386V192.068Z" fill="#3F3D56"/>
<path d="M234.626 124.488C237.244 124.488 239.366 122.709 239.366 120.514C239.366 118.319 237.244 116.54 234.626 116.54C232.009 116.54 229.887 118.319 229.887 120.514C229.887 122.709 232.009 124.488 234.626 124.488Z" fill="#FFB8B8"/>
<path d="M332.015 257H258.154C258.049 257 257.949 256.965 257.875 256.903C257.8 256.841 257.759 256.757 257.759 256.669C257.759 256.581 257.8 256.497 257.875 256.435C257.949 256.373 258.049 256.338 258.154 256.338H332.015C332.119 256.338 332.22 256.373 332.294 256.435C332.368 256.497 332.41 256.581 332.41 256.669C332.41 256.757 332.368 256.841 332.294 256.903C332.22 256.965 332.119 257 332.015 257Z" fill="#CCCCCC"/>
<path d="M150.728 140.994H0V61.9314H150.728V140.994Z" fill="white"/>
<path d="M150.728 140.994H0V61.9314H150.728V140.994ZM0.688258 140.417H150.04V62.5085H0.688258V140.417Z" fill="#3F3D56"/>
<path d="M129.796 124.459H20.9326C20.8422 124.459 20.7556 124.429 20.6917 124.375C20.6278 124.322 20.5919 124.249 20.5919 124.173V80.4224C20.5919 80.3466 20.6278 80.274 20.6917 80.2204C20.7556 80.1668 20.8422 80.1367 20.9326 80.1367C21.0229 80.1367 21.1096 80.1668 21.1735 80.2204C21.2374 80.274 21.2733 80.3466 21.2733 80.4224V123.888H129.796C129.841 123.887 129.885 123.895 129.926 123.909C129.968 123.923 130.006 123.944 130.037 123.971C130.069 123.997 130.094 124.029 130.112 124.064C130.129 124.098 130.138 124.136 130.138 124.173C130.138 124.211 130.129 124.248 130.112 124.283C130.094 124.318 130.069 124.349 130.037 124.376C130.006 124.402 129.968 124.423 129.926 124.437C129.885 124.452 129.841 124.459 129.796 124.459Z" fill="#3F3D56"/>
<path d="M44.1919 121.317H34.2904C34.0223 121.316 33.7652 121.227 33.5756 121.068C33.386 120.909 33.2794 120.694 33.2791 120.469V109.024C33.2794 108.799 33.386 108.584 33.5756 108.425C33.7652 108.266 34.0223 108.176 34.2904 108.176H44.1919C44.46 108.176 44.7171 108.266 44.9067 108.425C45.0963 108.584 45.203 108.799 45.2033 109.024V120.469C45.203 120.694 45.0963 120.909 44.9067 121.068C44.7171 121.227 44.46 121.316 44.1919 121.317Z" fill="#37474F"/>
<path d="M62.2485 121.317H52.347C52.0789 121.316 51.8218 121.227 51.6322 121.068C51.4426 120.909 51.336 120.693 51.3357 120.469V98.1685C51.336 97.9437 51.4426 97.7282 51.6322 97.5692C51.8218 97.4102 52.0789 97.3208 52.347 97.3206H62.2485C62.5167 97.3208 62.7737 97.4102 62.9633 97.5692C63.1529 97.7282 63.2596 97.9437 63.2599 98.1685V120.469C63.2596 120.693 63.1529 120.909 62.9633 121.068C62.7737 121.227 62.5167 121.316 62.2485 121.317Z" fill="#37474F"/>
<path d="M80.3052 121.317H70.4037C70.1356 121.316 69.8785 121.227 69.6889 121.068C69.4993 120.909 69.3927 120.694 69.3923 120.469V109.024C69.3927 108.799 69.4993 108.584 69.6889 108.425C69.8785 108.266 70.1356 108.176 70.4037 108.176H80.3052C80.5733 108.176 80.8304 108.266 81.02 108.425C81.2096 108.584 81.3162 108.799 81.3166 109.024V120.469C81.3162 120.694 81.2096 120.909 81.02 121.068C80.8304 121.227 80.5733 121.316 80.3052 121.317Z" fill="#37474F"/>
<path d="M98.3619 121.317H88.4604C88.1983 121.321 87.9448 121.239 87.7552 121.087C87.5656 120.935 87.4555 120.727 87.449 120.507V93.8451C87.4555 93.6254 87.5656 93.4169 87.7552 93.2651C87.9448 93.1134 88.1983 93.0309 88.4604 93.0356H98.3619C98.6239 93.0309 98.8775 93.1134 99.067 93.2651C99.2566 93.4169 99.3667 93.6254 99.3732 93.8451V120.507C99.3667 120.727 99.2566 120.935 99.067 121.087C98.8775 121.239 98.6239 121.321 98.3619 121.317Z" fill="#37474F"/>
<path d="M116.419 121.317H106.517C106.249 121.317 105.992 121.227 105.802 121.068C105.613 120.909 105.506 120.694 105.506 120.469V86.1709C105.506 85.9461 105.613 85.7306 105.802 85.5716C105.992 85.4127 106.249 85.3232 106.517 85.323H116.419C116.687 85.3232 116.944 85.4127 117.133 85.5716C117.323 85.7306 117.43 85.9461 117.43 86.1709V120.469C117.43 120.694 117.323 120.909 117.133 121.068C116.944 121.227 116.687 121.317 116.419 121.317Z" fill="#37474F"/>
<path d="M39.2411 104.748C40.3701 104.748 41.2853 103.98 41.2853 103.034C41.2853 102.087 40.3701 101.32 39.2411 101.32C38.1122 101.32 37.197 102.087 37.197 103.034C37.197 103.98 38.1122 104.748 39.2411 104.748Z" fill="#3F3D56"/>
<path d="M57.2978 93.607C58.4267 93.607 59.3419 92.8396 59.3419 91.893C59.3419 90.9463 58.4267 90.179 57.2978 90.179C56.1688 90.179 55.2536 90.9463 55.2536 91.893C55.2536 92.8396 56.1688 93.607 57.2978 93.607Z" fill="#3F3D56"/>
<path d="M75.3545 104.748C76.4834 104.748 77.3986 103.98 77.3986 103.034C77.3986 102.087 76.4834 101.32 75.3545 101.32C74.2255 101.32 73.3103 102.087 73.3103 103.034C73.3103 103.98 74.2255 104.748 75.3545 104.748Z" fill="#3F3D56"/>
<path d="M93.4112 88.1792C94.5401 88.1792 95.4553 87.4118 95.4553 86.4652C95.4553 85.5186 94.5401 84.7512 93.4112 84.7512C92.2822 84.7512 91.367 85.5186 91.367 86.4652C91.367 87.4118 92.2822 88.1792 93.4112 88.1792Z" fill="#3F3D56"/>
<path d="M111.468 81.8948C112.597 81.8948 113.512 81.1274 113.512 80.1808C113.512 79.2342 112.597 78.4668 111.468 78.4668C110.339 78.4668 109.424 79.2342 109.424 80.1808C109.424 81.1274 110.339 81.8948 111.468 81.8948Z" fill="#3F3D56"/>
<path d="M75.3973 103.418L57.2979 92.0504L39.4452 103.262L39.0368 102.805L57.2979 91.3364L75.3112 102.65L93.212 86.2246L93.2839 86.2L111.34 80.0996L111.595 80.6298L93.6102 86.7058L75.3973 103.418Z" fill="#3F3D56"/>
</svg>
