<svg width="1370" height="1971" viewBox="0 0 1370 1971" fill="none" xmlns="http://www.w3.org/2000/svg">
<mask id="mask0_1015_1057" style="mask-type:alpha" maskUnits="userSpaceOnUse" x="247" y="-318" width="1895" height="2137">
<path d="M2141.44 113.346L955.814 -317.909L323.757 706.711L247.798 1036.02L796.472 1736.43L1355.27 1818.96L1812.19 911.042L2141.44 113.346Z" fill="url(#paint0_linear_1015_1057)"/>
</mask>
<g mask="url(#mask0_1015_1057)">
<mask id="mask1_1015_1057" style="mask-type:alpha" maskUnits="userSpaceOnUse" x="400" y="-398" width="2039" height="2263">
<path d="M1577.69 1864.72C1055.75 1610.64 427.333 1231.66 400.489 1220.7L1223.38 -397.154L2438.36 79.7468L1577.69 1864.72Z" fill="url(#paint1_linear_1015_1057)"/>
</mask>
<g mask="url(#mask1_1015_1057)">
<path d="M906.302 724.261C995.673 546.677 1257.87 488.117 1425.56 569.474C1593.26 650.832 1777.15 829.485 1681.26 1020.02C1633.74 1114.44 1688.15 1283.46 1548.19 1355.12C1405.71 1428.07 1190.06 1291.15 1105.47 1250.11C937.771 1168.75 816.93 901.846 906.302 724.261Z" fill="#37474F"/>
<g filter="url(#filter0_f_1015_1057)">
<path d="M919.594 733.356C1015.44 542.902 1229.26 477.051 1359.45 540.214C1489.65 603.377 1624.34 758.125 1528.49 948.58C1480.99 1042.96 1513.74 1201.42 1392.47 1282.1C1269.03 1364.22 1104.52 1252.12 1038.85 1220.26C908.655 1157.1 823.745 923.811 919.594 733.356Z" fill="#37474F"/>
</g>
<g filter="url(#filter1_f_1015_1057)">
<path d="M922.496 727.592C1029.92 514.129 1286.12 448.354 1446.88 526.347C1607.65 604.34 1778.08 787.23 1670.66 1000.69C1617.42 1106.47 1679.4 1296.34 1536.1 1383.18C1390.22 1471.58 1172.01 1329.52 1090.91 1290.18C930.148 1212.18 815.068 941.055 922.496 727.592Z" fill="#37474F"/>
</g>
<g filter="url(#filter2_f_1015_1057)">
<path d="M987.446 728.348C1163.67 485.946 1504.03 379.465 1712.02 480.372C1920.01 581.278 2077.54 824.129 1948.71 1080.14C1884.86 1207 2029.47 1480.06 1850.04 1580.54C1667.39 1682.82 1295.16 1483.32 1190.24 1432.42C982.253 1331.51 783.298 1009.16 987.446 728.348Z" fill="#37474F"/>
</g>
<g filter="url(#filter3_f_1015_1057)">
<path d="M1074.9 684.889C1213.63 409.237 1610.94 282.252 1814.29 380.908C2017.65 479.565 2165 730.249 2026.27 1005.9C1957.53 1142.5 1951.67 1346.01 1768.73 1459.17C1582.5 1574.36 1120.3 1450.36 1017.72 1400.59C814.365 1301.94 936.176 960.541 1074.9 684.889Z" fill="#37474F"/>
</g>
<g filter="url(#filter4_f_1015_1057)">
<path d="M1219.97 597.297C1363.33 312.436 1760.84 200.175 1968.83 301.081C2176.82 401.987 2326.76 659.915 2183.4 944.776C2112.36 1085.94 1724.9 1160.2 1536.92 1277.66C1345.57 1397.24 1081.43 1220.79 976.51 1169.89C768.52 1068.98 1076.61 882.157 1219.97 597.297Z" fill="#37474F"/>
</g>
</g>
</g>
<defs>
<filter id="filter0_f_1015_1057" x="865.307" y="503.787" width="708.783" height="820.973" filterUnits="userSpaceOnUse" color-interpolation-filters="sRGB">
<feFlood flood-opacity="0" result="BackgroundImageFix"/>
<feBlend mode="normal" in="SourceGraphic" in2="BackgroundImageFix" result="shape"/>
<feGaussianBlur stdDeviation="6.58483" result="effect1_foregroundBlur_1015_1057"/>
</filter>
<filter id="filter1_f_1015_1057" x="834.568" y="448.598" width="915.803" height="1009.15" filterUnits="userSpaceOnUse" color-interpolation-filters="sRGB">
<feFlood flood-opacity="0" result="BackgroundImageFix"/>
<feBlend mode="normal" in="SourceGraphic" in2="BackgroundImageFix" result="shape"/>
<feGaussianBlur stdDeviation="23.0469" result="effect1_foregroundBlur_1015_1057"/>
</filter>
<filter id="filter2_f_1015_1057" x="836.049" y="376.601" width="1225.13" height="1298.54" filterUnits="userSpaceOnUse" color-interpolation-filters="sRGB">
<feFlood flood-opacity="0" result="BackgroundImageFix"/>
<feBlend mode="normal" in="SourceGraphic" in2="BackgroundImageFix" result="shape"/>
<feGaussianBlur stdDeviation="32.9241" result="effect1_foregroundBlur_1015_1057"/>
</filter>
<filter id="filter3_f_1015_1057" x="732.05" y="169.914" width="1526.35" height="1514.6" filterUnits="userSpaceOnUse" color-interpolation-filters="sRGB">
<feFlood flood-opacity="0" result="BackgroundImageFix"/>
<feBlend mode="normal" in="SourceGraphic" in2="BackgroundImageFix" result="shape"/>
<feGaussianBlur stdDeviation="88.8952" result="effect1_foregroundBlur_1015_1057"/>
</filter>
<filter id="filter4_f_1015_1057" x="465.341" y="-176.484" width="2215.87" height="1936.11" filterUnits="userSpaceOnUse" color-interpolation-filters="sRGB">
<feFlood flood-opacity="0" result="BackgroundImageFix"/>
<feBlend mode="normal" in="SourceGraphic" in2="BackgroundImageFix" result="shape"/>
<feGaussianBlur stdDeviation="220.592" result="effect1_foregroundBlur_1015_1057"/>
</filter>
<linearGradient id="paint0_linear_1015_1057" x1="1034.4" y1="593.141" x2="797.846" y2="1201.7" gradientUnits="userSpaceOnUse">
<stop stop-color="#C4C4C4"/>
<stop offset="0.943414" stop-color="#C4C4C4" stop-opacity="0"/>
</linearGradient>
<linearGradient id="paint1_linear_1015_1057" x1="1100.7" y1="821.663" x2="1744.03" y2="1235.67" gradientUnits="userSpaceOnUse">
<stop stop-color="#C4C4C4"/>
<stop offset="1" stop-color="#C4C4C4" stop-opacity="0"/>
</linearGradient>
</defs>
</svg>
