<svg width="306" height="321" viewBox="0 0 306 321" fill="none" xmlns="http://www.w3.org/2000/svg">
<path d="M173.905 106.535C172.78 105.873 171.405 105.519 169.94 105.519C168.83 105.519 167.705 105.723 166.69 106.112C163.83 107.197 161.595 109.389 159.365 111.73C159.22 111.879 159.14 112.043 159.1 112.213C159.095 112.307 159.08 112.402 159.075 112.497C159.125 113.049 159.66 113.582 160.185 113.582C160.415 113.582 160.635 113.473 160.84 113.259L161.04 113.049C163.22 110.758 166.205 107.621 169.865 107.621C170.41 107.621 170.965 107.69 171.505 107.83C173.365 108.308 174.57 109.648 174.57 111.232C174.57 112.626 173.745 114.2 172.415 114.309C171.85 114.354 171.28 114.703 171.28 115.375C171.28 115.843 171.725 116.441 172.225 116.441C174.475 116.257 176.21 114.598 176.595 112.322C176.985 109.927 175.985 107.76 173.905 106.535Z" fill="#37474F"/>
<path d="M234.325 214.101C236.352 209.035 237.21 203.58 236.835 198.139L236.79 197.477L237.425 197.273C241.7 195.878 244.975 192.721 246.41 188.602C247.72 184.852 247.145 180.474 244.875 176.888L244.44 176.206L245.1 175.738C250.32 172.057 252.2 164.532 249.205 159.302L248.835 158.66L249.425 158.207C255.45 153.565 257.515 144.64 254.125 137.887C253.07 135.785 251.39 133.997 249.77 132.269C248.435 130.844 247.055 129.375 246 127.717C243.89 124.395 243.59 120.565 243.3 116.855C243.235 116.048 243.175 115.241 243.09 114.444C242.23 106.087 238.955 98.0935 233.63 91.3352C231.135 88.1676 228.105 85.284 224.63 82.7689C223.024 81.6056 221.335 80.5618 219.575 79.6462C218.425 79.0486 217.165 78.5306 215.945 78.0276C215.225 77.7288 214.515 77.4399 213.84 77.1361C212.995 76.7576 211.875 76.165 211.325 75.5026C210.635 74.6708 210.36 73.874 210.065 73.0323L209.925 72.6388C209.015 70.1038 208.075 68.3657 206.79 66.8317C204.585 64.2021 201.4 62.4092 197.835 61.7866L197.335 61.697L197.175 61.2139C195.835 57.2246 191.58 54.2164 187.275 54.2164C186.64 54.2164 186.015 54.2812 185.41 54.4107L184.89 54.5202L184.56 54.1069C184.29 53.7682 184.01 53.4495 183.725 53.1556C180.9 50.2222 176.655 48.5388 172.09 48.5388C171.025 48.5388 169.96 48.6285 168.92 48.8127C166.405 49.251 164.005 50.3915 161.99 52.1097C159.265 54.4306 157.87 57.892 157.18 60.3871C156.28 63.6343 156.025 67.1106 155.775 70.4724L155.715 71.3091C155.4 75.4876 155.11 79.7259 154.85 83.9044C154.32 92.4109 153.9 101.042 153.6 109.548C153.005 126.432 152.85 143.564 153.15 160.468C153.45 177.441 154.205 194.628 155.405 211.546C155.965 219.48 156.61 227.987 157.495 236.423C158.13 242.46 159.19 248.775 162.625 254.054L162.815 254.343L162.75 254.681C162.115 257.879 162.58 261.196 164.095 264.279C166.495 269.164 171.57 272.446 176.72 272.446C177.16 272.446 177.61 272.422 178.045 272.377C183.265 271.809 187.805 268.851 190.18 264.463L190.48 263.915L191.095 264.035C192.79 264.358 194.535 264.523 196.275 264.523C200.86 264.523 205.405 263.397 209.42 261.27C214.565 258.546 218.885 253.855 221.275 248.406C222.57 245.453 223.325 242.514 223.585 239.412C223.67 238.406 223.645 237.36 223.625 236.254C223.575 234.028 223.525 231.727 224.395 229.595C225.17 227.693 226.575 226.114 227.935 224.585M244.9 170.538C243.88 172.017 242.465 173.173 240.73 173.661C240.075 173.845 239.54 174.428 239.37 175.145C239.295 175.454 239.195 176.236 239.85 176.833C241.375 178.228 242.695 180.11 242.96 182.237C243.24 184.508 242.155 186.988 241.175 188.985C239.93 191.535 237.695 193.592 234.82 194.05C233.97 194.185 232.995 194.658 232.78 195.559C232.495 196.735 233.465 198.199 232.98 199.32C232.805 199.728 232.36 199.957 232.125 200.326C231.82 200.819 231.655 201.342 231.595 201.919C231.455 203.194 231.57 204.514 231.675 205.784C231.81 207.398 232.05 208.887 231.565 210.461C231.1 211.965 230.535 213.444 229.85 214.863C228.555 217.548 226.98 219.978 225.165 222.09L224.905 222.394C222.88 224.749 220.97 226.971 220.29 229.899C219.88 231.662 219.845 233.475 219.84 235.492V235.861L219.57 236.115C219.495 236.184 219.43 236.264 219.37 236.354C218.185 238.196 216.11 239.292 213.81 239.292C212.87 239.292 211.95 239.113 211.08 238.754C211.02 238.729 210.955 238.719 210.885 238.719C210.485 238.719 209.98 239.123 209.87 239.531C209.64 240.358 210.455 240.766 210.715 240.871C211.66 241.259 212.67 241.454 213.72 241.454C214.91 241.454 216.135 241.195 217.27 240.702L218.81 240.029L218.445 241.663C217.8 244.551 217.055 247.619 215.685 250.568L215.655 250.632L215.615 250.692C213.24 254.129 210.105 256.778 206.31 258.566C202.18 260.508 197.78 260.942 193.28 260.503L193.145 260.489C191.885 260.319 190.81 260.1 189.825 259.821C189.66 259.776 189.495 259.751 189.335 259.751C188.31 259.751 187.97 260.469 187.45 261.171C187.105 261.644 186.42 262.023 185.985 262.436C185.42 262.969 184.88 263.532 184.335 264.089C183.25 265.2 182.15 266.316 180.86 267.192C178.665 268.676 176.26 268.96 173.765 268.104C171.5 267.327 169.555 265.738 168.22 263.776C166.755 261.619 166.19 259.129 166.325 256.549L166.66 256.31C166.73 256.26 166.8 256.205 166.86 256.146C167.705 255.304 167.445 254.154 166.805 253.387C165.95 252.356 165.075 250.951 164.345 249.432C161.86 244.262 161.385 238.276 160.92 232.489C160.845 231.568 160.775 230.651 160.69 229.75C159.96 221.607 159.325 213.329 158.8 205.157C158.345 198.04 157.96 190.674 157.655 183.268L157.6 181.893L158.86 182.456C159.34 182.67 159.855 182.78 160.395 182.78C162.02 182.78 163.995 181.764 165.825 179.996C165.955 179.866 166.095 179.732 166.235 179.587C167.24 178.576 168.485 177.316 170.13 177.306C171.05 177.301 172.445 178.392 171.795 179.413L171.545 179.807L171.365 179.812C171.3 180.016 171.31 180.235 171.405 180.459C171.59 180.897 172.04 181.226 172.455 181.226C172.69 181.226 172.915 181.121 173.12 180.907C174.15 179.851 174.26 178.238 173.395 176.893C172.695 175.807 171.535 175.21 170.12 175.21C169.745 175.21 169.36 175.254 168.98 175.339C167.19 175.748 165.85 177.032 164.43 178.392L164.05 178.756C163.085 179.677 161.92 180.613 160.615 180.613C160.05 180.613 159.52 180.434 159.04 180.085C158.64 179.792 157.97 180.051 157.54 180.13C157.555 180.125 157.505 179.249 157.5 179.179C157.215 171.484 157.02 163.78 156.925 156.289C156.775 144.71 156.84 133.128 157.12 121.551C157.245 116.76 157.345 111.964 157.525 107.178C157.72 102.038 157.97 96.6442 158.27 91.1409L158.305 90.4686L158.97 90.3491C159.15 90.3192 159.325 90.2096 159.49 90.0353C161.315 88.0531 164.02 86.8678 166.725 86.8678C167.98 86.8678 169.185 87.1168 170.295 87.6098C170.52 87.7095 170.755 87.7642 170.97 87.7642C171.355 87.7642 171.645 87.5999 171.84 87.2762C171.985 87.0321 172.01 86.6536 171.905 86.3299C171.86 86.2004 171.76 85.9613 171.54 85.8667C169.98 85.1813 168.295 84.8268 166.59 84.8258C164.15 84.8258 161.835 85.533 159.895 86.8727L158.45 87.8688C158.565 85.9315 158.8 83.9642 158.8 82.0268L159.535 81.9173C159.7 81.9023 159.925 81.8476 160.08 81.6683C163.65 77.4847 168.425 74.8153 173.89 73.9387C174.115 73.9039 174.27 73.7246 174.365 73.5851C174.545 73.3062 174.62 72.9227 174.545 72.6538C174.36 71.9814 173.705 71.9117 173.43 71.9117C173.335 71.9117 173.24 71.9217 173.145 71.9366C168.505 72.6787 164.035 74.875 160.55 78.1123L158.965 79.5865L159.115 77.4349C159.275 75.144 159.435 72.853 159.61 70.562L159.645 70.069C159.885 66.8865 160.11 63.8784 161.085 60.7407C161.445 59.5853 161.92 58.4597 162.55 57.4238C164.53 54.1666 168.13 52.3637 171.91 52.3388C174.225 52.3239 176.54 52.8468 178.555 53.9923C179.599 54.5831 180.542 55.3344 181.35 56.2186L181.645 56.5423L181.55 56.9706C181.035 59.2865 184.495 59.9787 185.79 58.5494C185.875 58.4547 185.95 58.3551 186.04 58.2754C186.405 57.9567 187.225 58.0613 187.68 58.0912C188.255 58.131 188.825 58.2456 189.37 58.4249C190.465 58.7834 191.47 59.411 192.285 60.2278C192.435 60.3772 192.575 60.5316 192.71 60.6909L196.7 65.4522C198.4 65.6564 200.005 66.254 201.58 67.275C203.235 68.3507 204.545 69.8299 205.47 71.6776C205.84 72.4147 206.145 73.2215 206.44 73.9985C206.975 75.4129 207.53 76.8722 208.5 78.0226C209.86 79.6363 211.825 80.4132 213.9 81.2399C214.24 81.3744 214.58 81.5089 214.92 81.6483C221.605 84.3975 227.92 89.5621 232.24 95.8075C234.48 99.0498 236.21 102.436 237.38 105.878C238.82 110.121 239.235 113.921 239.565 117.761C239.925 121.984 240.55 126.81 243.4 130.65C244.29 131.85 245.345 132.981 246.37 134.077C248.915 136.806 250.75 139.311 251.325 143.106C251.875 146.707 251.375 150.567 248.93 153.416C247.76 154.78 246.465 155.726 244.865 156.543C243.98 156.01 243.04 155.572 242.155 155.039C240.915 154.287 239.89 153.51 239.765 151.981C239.61 150.094 239.825 148.251 239.42 146.373C238.625 142.723 236.685 139.411 233.8 136.791L233.3 136.338L233.625 135.75C235.02 133.23 235.335 130.127 234.48 127.239C233.68 124.534 231.955 122.353 229.615 121.098C229.435 121.003 229.26 120.953 229.09 120.953C228.565 120.953 228.135 121.432 228.015 121.89C227.905 122.333 228.06 122.672 228.485 122.901C230.64 124.056 232.23 126.317 232.735 128.952C233.22 131.477 232.635 133.942 231.135 135.72C230.96 135.929 230.76 136.253 230.805 136.627C230.84 136.94 231.04 137.239 231.38 137.493C234.905 140.103 237.315 144.456 237.665 148.854C237.72 149.551 237.68 150.268 237.645 150.96C237.555 152.604 237.48 154.023 238.505 155.039C239.11 155.642 239.96 156.12 240.78 156.578C241.08 156.747 241.375 156.912 241.66 157.086C242.17 157.395 242.685 157.704 243.195 158.012C243.94 158.461 244.245 158.914 244.8 159.606C245.045 159.905 245.285 160.209 245.505 160.527C247.5 163.491 246.85 167.704 244.9 170.538Z" fill="#37474F"/>
<path d="M173.825 202.129C174.105 199.843 174.39 197.482 175.56 195.36C175.855 194.827 176.195 194.304 176.605 193.757L177.54 192.506L178.09 193.966C178.905 196.127 180.74 197.701 182.87 198.065C182.97 198.079 183.07 198.089 183.165 198.089C183.435 198.089 184.075 198.015 184.265 197.342C184.34 197.073 184.27 196.705 184.095 196.426C184.02 196.306 183.855 196.097 183.605 196.057C181.49 195.694 179.925 194.075 179.8 192.118C179.785 191.879 179.715 191.68 179.59 191.515L179.135 190.923L179.665 190.395L179.785 190.275C180.38 189.683 181 189.07 181.565 188.452C183.745 186.077 184.99 183.741 185.375 181.311C185.82 178.497 185.07 176.026 183.32 174.532C183.065 174.318 182.755 174.194 182.465 174.194C182.2 174.194 181.965 174.293 181.765 174.487C181.565 174.682 181.45 175.02 181.46 175.339C181.465 175.488 181.505 175.762 181.715 175.942C184.175 178.038 183.585 181.505 182.215 184.045C181.155 186.017 179.56 187.581 178.025 189.095C177.09 190.011 176.21 190.878 175.44 191.829C174.155 193.413 173.3 194.897 172.76 196.506C172.245 198.04 172.03 199.718 171.82 201.342C171.775 201.695 171.73 202.044 171.68 202.397C171.355 204.798 170.745 209.26 167.035 210.904C166.825 210.999 166.72 211.208 166.67 211.367C166.57 211.681 166.595 212.069 166.735 212.313C166.925 212.637 167.22 212.801 167.615 212.801C167.83 212.801 168.06 212.752 168.28 212.652C171.735 211.118 172.965 206.999 173.335 205.301C173.565 204.275 173.69 203.234 173.825 202.129ZM173.32 216.402C173.345 216.168 173.21 215.969 173.095 215.839C172.87 215.595 172.535 215.431 172.25 215.431C171.55 215.431 171.235 216.049 171.18 216.577C171.03 218.026 171.515 219.47 172.545 220.646C173.65 221.906 175.2 222.658 176.8 222.712C177.685 222.712 177.765 221.97 177.765 221.741C177.765 221.627 177.755 220.626 176.74 220.591C176.267 220.575 175.802 220.461 175.375 220.257C174.948 220.053 174.569 219.763 174.26 219.405C173.545 218.594 173.205 217.498 173.32 216.402Z" fill="#37474F"/>
<path d="M213.595 180.872C209.775 176.918 204.965 174.199 199.685 173.013C199.645 173.003 199.6 172.998 199.56 172.993L198.975 172.914L198.84 172.341C198.385 170.379 197.645 168.75 196.64 167.51L195.905 166.599L197 166.18C199.499 165.227 201.858 163.94 204.01 162.355L204.57 161.942L205.09 162.405L208.85 165.782L210.225 167.017C210.44 167.211 210.68 167.311 210.93 167.311C211.395 167.311 211.895 166.957 212.065 166.509C212.2 166.165 212.11 165.861 211.795 165.578L206.915 161.19L206.23 160.572L206.9 159.94C208.575 158.356 210.06 156.578 211.32 154.656C211.525 154.342 211.555 154.058 211.41 153.784C211.215 153.425 210.75 153.161 210.305 153.161C209.945 153.161 209.65 153.326 209.435 153.655C207.955 155.906 206.135 157.928 204.025 159.671L204 159.691L203.975 159.711C203.925 159.746 203.875 159.79 203.825 159.83L203.805 159.85L203.78 159.87C201.035 162.081 197.945 163.725 194.605 164.751C194.465 164.796 194.35 164.85 194.245 164.93L193.82 165.249L193.345 165.01C192.95 164.811 192.55 164.621 192.15 164.432C191.39 164.073 190.6 163.705 189.845 163.262C187.03 161.618 185.94 158.52 184.98 155.781C184.715 155.024 184.46 154.307 184.18 153.63C183.16 151.169 180.805 147.036 176.465 147.036C176.21 147.036 175.95 147.051 175.69 147.075C173.445 147.315 171.405 148.614 170.22 150.557C169.08 152.429 168.885 154.656 169.68 156.663C169.845 157.081 170.21 157.529 170.73 157.529C170.825 157.529 170.92 157.514 171.02 157.489C171.295 157.415 171.575 157.166 171.725 156.867C171.79 156.742 171.88 156.498 171.79 156.274C170.825 153.839 171.545 151.244 173.55 149.964C174.378 149.439 175.339 149.163 176.32 149.167C177.465 149.167 178.575 149.536 179.44 150.213C180.97 151.398 181.765 153.226 182.39 154.85C182.605 155.413 182.815 155.98 183.02 156.548C183.48 157.808 183.955 159.113 184.54 160.328C185.335 161.992 186.33 163.302 187.495 164.223C188.47 164.995 189.585 165.518 190.765 166.071C191.655 166.489 192.575 166.917 193.445 167.47C196.855 169.627 197.22 174.149 197.51 177.784C197.545 178.253 197.585 178.701 197.625 179.129C198.49 188.074 198.92 197.437 193.95 204.923C192.95 206.432 191.7 207.761 190.49 209.046C188.805 210.839 187.21 212.537 186.25 214.669C185.63 216.039 185.055 218.125 185.8 220.302C186.225 221.542 186.97 222.598 187.76 223.713C188.215 224.361 188.69 225.033 189.105 225.75C189.975 227.259 190.15 228.938 189.61 230.611C188.94 232.673 187.255 234.486 185.095 235.457C183.905 235.995 182.585 236.264 181.18 236.264C178.325 236.264 175.06 235.153 171.47 232.957C171.285 232.847 171.11 232.788 170.94 232.788C170.47 232.788 170.09 233.236 169.97 233.654C169.89 233.933 169.845 234.451 170.425 234.805C173.055 236.413 177.075 238.331 181.265 238.331C183.29 238.331 185.145 237.873 186.79 236.961C188.155 236.209 189.355 235.143 190.26 233.883L191.01 232.842L191.685 233.933C192.965 236.005 194.94 237.728 197.245 238.784L197.605 238.948L197.71 239.327C197.755 239.486 197.84 239.636 197.965 239.775C198.995 240.921 199.24 242.425 198.62 243.799C197.985 245.209 196.565 246.12 194.995 246.12C194.595 246.12 194.175 246.409 193.975 246.812C193.865 247.027 193.785 247.345 194.005 247.639C194.795 248.695 195.13 250.099 194.9 251.399C194.695 252.58 194.055 253.581 193.09 254.218C192.5 254.612 192.565 255.165 192.655 255.458C192.78 255.872 193.13 256.285 193.56 256.285C193.725 256.285 193.9 256.225 194.08 256.101C196.425 254.542 197.62 251.454 196.915 248.755L196.73 248.043L197.415 247.759C198.855 247.161 199.98 246.085 200.57 244.731C201.085 243.56 201.195 242.265 200.88 240.99L200.605 239.865L201.765 239.94C202.015 239.954 202.265 239.964 202.515 239.964C202.73 239.964 202.95 239.959 203.165 239.944C204.01 239.9 204.22 239.163 204.205 238.739C204.2 238.525 204.12 237.818 203.34 237.818H203.26C203.055 237.828 202.85 237.833 202.65 237.833C198.42 237.833 194.54 235.328 192.76 231.448C192.68 231.269 191.875 230.173 191.875 230.173C192.22 228.355 191.94 226.537 191.07 224.919C190.73 224.286 190.27 223.674 189.785 223.021C188.835 221.751 187.855 220.436 187.6 218.783C187.255 216.557 188.575 214.555 189.76 213.06C190.535 212.084 191.385 211.178 192.21 210.296C192.96 209.494 193.735 208.663 194.43 207.806C195.915 205.973 197.09 203.956 198.025 201.64C199.555 197.86 200.28 193.278 200.245 187.631C200.22 183.537 199.975 179.747 199.52 176.36L199.345 175.065L200.605 175.434C206.49 177.142 211.55 180.768 214.86 185.639C218.85 191.52 220.24 198.866 218.665 205.794C218.585 206.138 218.645 206.432 218.84 206.676C219.065 206.959 219.46 207.144 219.845 207.144C220.305 207.144 220.59 206.905 220.7 206.437C221.459 203.107 221.61 199.669 221.145 196.287C220.55 191.954 218.87 187.74 216.285 184.11L215.545 183.069L216.795 182.79C223.005 181.4 228.465 177.446 231.775 171.938C231.975 171.604 231.995 171.295 231.825 171.001C231.62 170.643 231.165 170.379 230.745 170.379C230.4 170.379 230.125 170.548 229.925 170.877C226.62 176.375 220.995 180.09 214.495 181.067L214.435 181.081L213.94 181.221L213.595 180.872Z" fill="#37474F"/>
<path d="M209.73 138.569L208.86 138.3L209.185 137.448C209.885 135.611 210.225 133.614 210.16 131.666C210.13 130.675 209.15 130.645 209.035 130.645C208.715 130.645 208.43 130.75 208.25 130.934C208.095 131.093 208.02 131.323 208.025 131.611C208.095 133.843 207.59 136.104 206.6 137.991L206.53 138.121L206.425 138.22C206.25 138.38 206.12 138.604 206.055 138.843L206.02 138.977L205.94 139.092C205.03 140.427 203.885 141.487 202.535 142.24C201.145 143.011 199.54 143.42 197.895 143.42C195.87 143.42 193.96 142.777 192.525 141.617C191.6 140.87 190.855 139.978 190.135 139.112C189.485 138.335 188.875 137.598 188.155 136.98C186.696 135.732 185.027 134.751 183.225 134.082C181.575 133.464 179.76 133.15 177.83 133.15C177.685 133.15 177.545 133.15 177.405 133.155C177.03 133.165 176.645 133.185 176.255 133.21C175.71 133.24 175.15 133.275 174.585 133.275C173.67 133.275 172.315 133.2 171.085 132.533C168.13 130.934 166.715 127.373 167.79 124.25C167.895 123.942 167.875 123.688 167.73 123.483C167.54 123.219 167.155 123.045 166.755 123.045C166.46 123.045 165.925 123.14 165.705 123.787C164.385 127.622 166.295 132.353 169.965 134.341C171.605 135.227 173.375 135.347 174.895 135.347C175.51 135.347 176.125 135.327 176.745 135.302C177.03 135.292 177.315 135.287 177.6 135.287C179.93 135.287 181.915 135.7 183.67 136.547C186.045 137.697 187.66 139.386 189.05 141.039C190.715 143.021 192.28 144.207 194.12 144.884C195.314 145.321 196.577 145.544 197.85 145.542C200.625 145.542 203.435 144.506 205.56 142.703C206.23 142.135 206.86 141.458 207.425 140.696L207.775 140.227L208.34 140.382C213.61 141.826 218.16 144.944 221.16 149.157C224.905 154.422 226.29 161.045 224.955 167.331C224.88 167.679 224.945 167.978 225.145 168.222C225.375 168.506 225.775 168.69 226.155 168.69C226.605 168.69 226.885 168.456 226.98 167.993C228.465 161.001 227.04 153.789 223.075 148.211C219.805 143.629 215.07 140.203 209.73 138.569Z" fill="#37474F"/>
<path d="M203.205 115.983C203.275 115.983 203.335 115.973 203.395 115.948C207.23 114.349 210.595 111.725 213.125 108.363L213.75 107.536L214.445 108.303C216.145 110.181 218.14 112.746 218.495 115.913C218.845 119.046 217.52 121.67 214.945 122.94C213.045 123.877 210.915 124.096 208.855 124.305C208.325 124.36 207.795 124.415 207.28 124.479C204.56 124.828 201.705 125.406 199.265 127.224C197.99 128.175 196.79 129.365 195.5 130.959L194.62 132.045L194.05 130.775C192.835 128.06 190.725 125.71 188.105 124.156L187.14 123.583L187.95 122.811C189.622 121.217 191.063 119.398 192.23 117.407C193.78 114.763 196.21 109.628 195.04 104.966C193.99 100.783 190.095 97.6252 186.795 96.0664C183.915 94.7067 180.775 94.0145 177.475 94.0145C172.13 94.0145 166.49 95.7974 161.17 99.1691C160.585 99.5377 160.64 100.071 160.72 100.359C160.845 100.783 161.205 101.211 161.66 101.211C161.825 101.211 162.005 101.151 162.185 101.037C166.77 98.1332 171.265 96.4847 175.545 96.151C176.13 96.1062 176.725 96.0813 177.31 96.0813C180.66 96.0813 183.845 96.8533 186.525 98.3075C188.5 99.3783 193.095 102.381 193.195 107.138C193.29 111.57 190.86 115.769 189.405 117.88C188.225 119.589 186.78 121.138 185.11 122.482L184.855 122.686L184.53 122.672H184.525C183.895 122.672 183.67 123.214 183.615 123.379L183.52 123.658L183.275 123.817C182.645 124.23 181.995 124.614 181.35 124.953C180.93 125.177 180.77 125.51 180.88 125.944C180.995 126.407 181.435 126.89 181.97 126.89C182.14 126.89 182.315 126.84 182.49 126.75C183.275 126.337 184.06 125.864 184.825 125.341L185.215 125.077L185.65 125.261C189.58 126.945 192.42 130.685 193.065 135.023C193.085 135.177 193.155 135.635 193.875 135.635C194.335 135.635 194.815 135.421 195.035 135.112L195.17 134.918C197.2 132.06 199.495 128.822 203.05 127.542C205.025 126.83 207.165 126.566 209.235 126.312C213.085 125.839 216.725 125.396 219.085 122.193C220.745 119.942 221.145 116.605 220.12 113.483C219.125 110.455 217.025 107.95 215.3 106.112L214.89 105.669L215.17 105.136C216.83 101.973 217.74 98.4619 217.795 94.9806C217.8 94.6918 217.72 94.4577 217.555 94.2934C217.37 94.1041 217.08 93.9995 216.76 93.9995C216.65 93.9995 215.68 94.0294 215.665 95.0105C215.54 103.044 210.345 110.783 203.035 113.836C202.705 113.976 201.965 114.379 202.19 115.176C202.305 115.579 202.805 115.983 203.205 115.983Z" fill="#37474F"/>
<path d="M183.285 74.0979C183.355 74.1178 183.43 74.1278 183.515 74.1278C183.97 74.1278 184.52 73.8439 184.575 73.4654C184.835 71.6276 186.51 70.3477 188.645 70.3477C189.205 70.3477 189.75 70.4423 190.265 70.6266C193.18 71.6724 194.755 74.9645 195.685 77.3451C198.075 83.4709 199.245 90.5082 199.37 99.4978C199.385 100.479 200.35 100.504 200.46 100.504C200.78 100.504 201.075 100.394 201.26 100.21C201.425 100.046 201.505 99.8116 201.5 99.5227C201.44 95.2097 201.14 91.33 200.58 87.6594C200.04 84.1184 199.215 80.8164 198.13 77.8431C197.16 75.1786 195.975 72.4444 193.905 70.5021C192.345 69.0378 190.505 68.2659 188.595 68.2659C188.06 68.2659 187.515 68.3256 186.975 68.4501C185.085 68.8834 182.895 70.3925 182.57 72.6884C182.51 73.0371 182.48 73.8787 183.285 74.0979ZM217 129.808C217 130.476 217.575 130.824 218.14 130.874C220.645 131.093 222.66 133.15 223.04 135.864C223.095 136.243 223.645 136.522 224.1 136.522C224.185 136.522 224.26 136.512 224.33 136.492C225.15 136.268 225.09 135.351 225.05 135.078C224.58 131.726 221.61 129.061 217.99 128.738H217.935C217.445 128.743 217 129.335 217 129.808ZM212.115 202.044C211.967 201.954 211.798 201.905 211.625 201.904C211.26 201.904 210.88 202.123 210.615 202.492C208.525 205.381 205.065 207.109 201.36 207.109H201.29C200.345 207.109 200.295 207.98 200.295 208.155C200.295 208.264 200.32 209.225 201.3 209.23H201.385C205.815 209.23 209.88 207.114 212.545 203.428C212.695 203.219 212.665 202.955 212.64 202.816C212.565 202.497 212.36 202.188 212.115 202.044ZM200.055 229.097C200.295 229.097 200.52 228.992 200.73 228.783C203.4 226.139 203.97 221.851 202.095 218.583C201.905 218.25 201.635 218.08 201.3 218.08C200.88 218.08 200.44 218.334 200.23 218.703C200.055 219.002 200.065 219.326 200.265 219.669C201.685 222.139 201.26 225.272 199.225 227.284C198.91 227.598 198.83 227.947 198.985 228.32C199.17 228.763 199.63 229.097 200.055 229.097ZM214.275 219.131C212.93 219.131 211.585 219.46 210.39 220.073C209.97 220.287 209.81 220.615 209.915 221.044C210.03 221.512 210.475 222 211.02 222C211.19 222 211.365 221.955 211.54 221.861C212.36 221.437 213.29 221.213 214.235 221.213C215.87 221.213 217.465 221.876 218.615 223.026C218.825 223.235 219.05 223.34 219.29 223.34C219.71 223.34 220.17 223.006 220.355 222.568C220.515 222.189 220.435 221.836 220.12 221.522C218.57 219.983 216.5 219.131 214.275 219.131ZM182.665 246.474C182.495 246.474 182.32 246.523 182.14 246.628C177.095 249.482 174.485 255.637 175.94 261.265C176.095 261.863 176.52 261.987 176.845 261.987C177.235 261.987 177.625 261.808 177.84 261.529C178.02 261.295 178.07 261.011 177.985 260.678C176.775 255.996 178.98 250.856 183.23 248.456C183.77 248.152 183.78 247.709 183.695 247.39C183.58 246.947 183.18 246.474 182.665 246.474ZM131.145 106.535C132.27 105.873 133.645 105.519 135.11 105.519C136.22 105.519 137.345 105.723 138.36 106.112C141.22 107.197 143.455 109.389 145.685 111.73C145.83 111.879 145.91 112.043 145.95 112.213C145.955 112.307 145.97 112.402 145.975 112.497C145.925 113.049 145.39 113.582 144.865 113.582C144.635 113.582 144.415 113.473 144.21 113.259L144.01 113.049C141.83 110.758 138.845 107.621 135.185 107.621C134.64 107.621 134.085 107.69 133.545 107.83C131.685 108.308 130.48 109.648 130.48 111.232C130.48 112.626 131.305 114.2 132.635 114.309C133.2 114.354 133.77 114.703 133.77 115.375C133.77 115.843 133.325 116.441 132.825 116.441C130.575 116.257 128.84 114.598 128.455 112.322C128.065 109.927 129.065 107.76 131.145 106.535Z" fill="#37474F"/>
<path d="M77.125 224.595C78.485 226.119 79.89 227.698 80.665 229.605C81.53 231.737 81.48 234.038 81.435 236.264C81.41 237.369 81.39 238.415 81.475 239.421C81.735 242.524 82.495 245.463 83.785 248.416C86.175 253.864 90.495 258.551 95.64 261.28C99.655 263.407 104.2 264.532 108.785 264.532C110.53 264.532 112.27 264.368 113.965 264.044L114.58 263.925L114.88 264.473C117.255 268.86 121.795 271.819 127.015 272.386C127.455 272.436 127.9 272.456 128.34 272.456C133.49 272.456 138.56 269.174 140.965 264.288C142.48 261.206 142.945 257.884 142.31 254.691L142.245 254.353L142.435 254.064C145.865 248.784 146.93 242.469 147.565 236.433C148.455 227.996 149.095 219.49 149.655 211.556C150.85 194.633 151.61 177.446 151.91 160.477C152.205 143.579 152.055 126.447 151.46 109.558C151.16 101.052 150.74 92.4257 150.21 83.9142C149.95 79.7357 149.66 75.4974 149.345 71.3188L149.285 70.4821C149.035 67.1204 148.78 63.6441 147.88 60.3969C147.19 57.9017 145.795 54.4404 143.07 52.1195C141.055 50.4013 138.655 49.2608 136.14 48.8225C135.1 48.6432 134.03 48.5486 132.97 48.5486C128.4 48.5486 124.16 50.2319 121.335 53.1654C121.055 53.4592 120.775 53.778 120.5 54.1166L120.17 54.53L119.65 54.4204C119.045 54.291 118.42 54.2262 117.785 54.2262C113.48 54.2262 109.225 57.2344 107.885 61.2236L107.725 61.7067L107.225 61.7964C103.655 62.4189 100.475 64.2119 98.27 66.8415C96.985 68.3755 96.045 70.1136 95.135 72.6486L94.995 73.0421C94.7 73.8837 94.425 74.6806 93.735 75.5123C93.185 76.1747 92.065 76.7674 91.22 77.1459C90.545 77.4497 89.84 77.7386 89.115 78.0374C87.895 78.5404 86.635 79.0583 85.485 79.656C83.7252 80.5716 82.0356 81.6153 80.43 82.7787C76.955 85.2938 73.925 88.1774 71.43 91.3449C66.105 98.1083 62.835 106.097 61.97 114.454C61.89 115.251 61.825 116.053 61.76 116.864C61.47 120.57 61.17 124.405 59.06 127.727C58.005 129.385 56.625 130.854 55.29 132.279C53.665 134.007 51.99 135.795 50.935 137.896C47.545 144.65 49.61 153.575 55.635 158.216L56.225 158.67L55.855 159.312C52.86 164.541 54.74 172.067 59.96 175.747L60.62 176.215L60.185 176.898C57.915 180.484 57.34 184.861 58.65 188.612C60.085 192.73 63.36 195.888 67.635 197.282L68.27 197.487L68.225 198.149C67.85 203.563 68.715 209.081 70.735 214.111M59.56 160.522C59.775 160.204 60.02 159.9 60.265 159.601C60.825 158.909 61.125 158.455 61.87 158.007C62.38 157.698 62.895 157.39 63.405 157.081C63.69 156.912 63.985 156.742 64.285 156.573C65.105 156.11 65.955 155.632 66.56 155.034C67.585 154.018 67.51 152.599 67.42 150.955C67.385 150.263 67.345 149.546 67.4 148.848C67.75 144.451 70.16 140.098 73.685 137.488C74.025 137.239 74.225 136.94 74.26 136.621C74.305 136.248 74.105 135.924 73.93 135.715C72.43 133.937 71.845 131.467 72.33 128.947C72.835 126.312 74.425 124.051 76.58 122.896C77.005 122.666 77.165 122.328 77.05 121.885C76.935 121.426 76.5 120.948 75.975 120.948C75.805 120.948 75.63 120.998 75.45 121.093C73.115 122.348 71.385 124.529 70.585 127.233C69.73 130.127 70.045 133.225 71.44 135.745L71.765 136.333L71.265 136.786C68.38 139.401 66.435 142.717 65.645 146.368C65.24 148.241 65.455 150.088 65.3 151.976C65.175 153.5 64.145 154.282 62.91 155.034C62.025 155.572 61.085 156.005 60.2 156.538C58.605 155.721 57.305 154.775 56.135 153.41C53.69 150.557 53.19 146.702 53.74 143.101C54.315 139.306 56.15 136.801 58.695 134.072C59.715 132.976 60.775 131.84 61.665 130.645C64.515 126.805 65.135 121.979 65.5 117.756C65.83 113.916 66.245 110.116 67.685 105.873C68.855 102.431 70.585 99.0446 72.825 95.8024C77.145 89.557 83.46 84.3973 90.145 81.6432C90.48 81.5037 90.82 81.3692 91.165 81.2348C93.245 80.408 95.205 79.6311 96.565 78.0174C97.535 76.867 98.085 75.4077 98.625 73.9933C98.92 73.2164 99.225 72.4145 99.595 71.6725C100.52 69.8247 101.83 68.3456 103.485 67.2698C105.055 66.2488 106.66 65.6512 108.365 65.447L112.355 60.6858C112.49 60.5264 112.63 60.372 112.78 60.2226C113.59 59.4058 114.595 58.7783 115.695 58.4197C116.24 58.2404 116.81 58.1258 117.385 58.086C117.835 58.0561 118.655 57.9515 119.025 58.2703C119.12 58.35 119.195 58.4545 119.275 58.5442C120.57 59.9785 124.03 59.2813 123.515 56.9654L123.42 56.5371L123.715 56.2134C124.52 55.3319 125.47 54.5798 126.51 53.9872C128.53 52.8417 130.845 52.3187 133.155 52.3337C136.935 52.3586 140.535 54.1615 142.515 57.4186C143.145 58.4545 143.62 59.5801 143.98 60.7356C144.955 63.8782 145.18 66.8813 145.42 70.0638L145.455 70.5569C145.63 72.8478 145.79 75.1388 145.95 77.4298L146.1 79.5813L144.515 78.1071C141.03 74.8649 136.56 72.6735 131.92 71.9314C131.825 71.9165 131.73 71.9065 131.635 71.9065C131.36 71.9065 130.705 71.9812 130.52 72.6486C130.445 72.9175 130.52 73.301 130.7 73.5799C130.79 73.7194 130.95 73.8987 131.175 73.9335C136.64 74.8101 141.42 77.4846 144.985 81.6631C145.135 81.8424 145.365 81.8972 145.53 81.9121L146.265 82.0217C146.265 83.959 146.505 85.9263 146.615 87.8636L145.17 86.8676C143.23 85.5279 140.915 84.8206 138.475 84.8206C136.78 84.8206 135.07 85.1792 133.525 85.8615C133.305 85.9562 133.2 86.1952 133.16 86.3247C133.055 86.6435 133.085 87.022 133.225 87.271C133.415 87.5947 133.71 87.7591 134.095 87.7591C134.31 87.7591 134.545 87.7043 134.77 87.6047C135.88 87.1116 137.08 86.8626 138.34 86.8626C141.045 86.8626 143.75 88.0479 145.575 90.0301C145.74 90.2044 145.91 90.314 146.095 90.3439L146.76 90.4634L146.795 91.1358C147.095 96.6391 147.345 102.033 147.54 107.173C147.72 111.964 147.82 116.755 147.945 121.546C148.225 133.123 148.29 144.704 148.14 156.284C148.04 163.774 147.845 171.479 147.565 179.174C147.56 179.249 147.51 180.125 147.525 180.125C147.09 180.045 146.425 179.786 146.025 180.08C145.545 180.429 145.015 180.608 144.45 180.608C143.145 180.608 141.98 179.667 141.015 178.75L140.635 178.387C139.215 177.027 137.87 175.737 136.085 175.334C135.705 175.249 135.32 175.204 134.945 175.204C133.535 175.204 132.37 175.802 131.67 176.888C130.805 178.233 130.915 179.846 131.945 180.902C132.15 181.111 132.375 181.221 132.61 181.221C133.025 181.221 133.475 180.892 133.66 180.454C133.755 180.23 133.77 180.011 133.7 179.806L133.52 179.801L133.27 179.408C132.62 178.387 134.015 177.296 134.935 177.301C136.58 177.311 137.825 178.571 138.83 179.582C138.97 179.727 139.11 179.861 139.24 179.991C141.065 181.759 143.045 182.775 144.67 182.775C145.21 182.775 145.725 182.665 146.205 182.451L147.465 181.888L147.41 183.263C147.105 190.669 146.72 198.034 146.265 205.151C145.74 213.324 145.105 221.597 144.375 229.745C144.295 230.651 144.22 231.562 144.145 232.484C143.68 238.271 143.2 244.257 140.72 249.427C139.99 250.946 139.12 252.35 138.26 253.381C137.625 254.148 137.36 255.299 138.205 256.14C138.265 256.2 138.335 256.255 138.405 256.305L138.74 256.544C138.875 259.124 138.31 261.614 136.845 263.77C135.51 265.738 133.565 267.321 131.3 268.098C128.805 268.955 126.4 268.676 124.205 267.187C122.91 266.31 121.81 265.195 120.73 264.084C120.185 263.526 119.645 262.964 119.08 262.431C118.645 262.017 117.96 261.634 117.615 261.166C117.1 260.463 116.755 259.746 115.73 259.746C115.565 259.746 115.4 259.771 115.24 259.816C114.255 260.095 113.18 260.309 111.92 260.483L111.785 260.498C107.29 260.937 102.885 260.503 98.755 258.561C94.955 256.778 91.825 254.128 89.45 250.687L89.41 250.627L89.38 250.562C88.01 247.614 87.265 244.546 86.62 241.658L86.255 240.024L87.795 240.696C88.93 241.189 90.155 241.448 91.345 241.448C92.395 241.448 93.405 241.249 94.35 240.866C94.605 240.761 95.42 240.353 95.195 239.526C95.08 239.118 94.58 238.714 94.18 238.714C94.11 238.714 94.045 238.724 93.985 238.749C93.115 239.108 92.2 239.287 91.255 239.287C88.955 239.287 86.875 238.186 85.695 236.348C85.6397 236.26 85.5724 236.18 85.495 236.109L85.225 235.855V235.487C85.22 233.47 85.185 231.657 84.775 229.894C84.095 226.965 82.185 224.744 80.16 222.389L79.9 222.085C78.09 219.973 76.515 217.543 75.215 214.858C74.53 213.439 73.965 211.96 73.5 210.456C73.015 208.882 73.255 207.398 73.39 205.779C73.495 204.509 73.605 203.189 73.47 201.914C73.405 201.336 73.245 200.819 72.94 200.32C72.71 199.947 72.26 199.718 72.085 199.314C71.605 198.199 72.57 196.735 72.285 195.554C72.07 194.658 71.095 194.18 70.245 194.045C67.37 193.587 65.135 191.53 63.89 188.98C62.915 186.983 61.825 184.503 62.105 182.232C62.365 180.105 63.685 178.218 65.215 176.828C65.87 176.23 65.77 175.448 65.695 175.14C65.525 174.423 64.99 173.84 64.335 173.656C62.6 173.167 61.185 172.012 60.165 170.533C58.195 167.704 57.545 163.491 59.56 160.522Z" fill="#37474F"/>
<path d="M131.22 202.129C130.94 199.843 130.655 197.482 129.485 195.36C129.19 194.827 128.85 194.304 128.44 193.757L127.505 192.506L126.955 193.966C126.14 196.127 124.305 197.701 122.175 198.065C122.075 198.079 121.975 198.089 121.88 198.089C121.61 198.089 120.97 198.015 120.78 197.342C120.705 197.073 120.775 196.705 120.95 196.426C121.025 196.306 121.19 196.097 121.44 196.057C123.555 195.694 125.12 194.075 125.245 192.118C125.26 191.879 125.33 191.68 125.455 191.515L125.91 190.923L125.38 190.395L125.26 190.275C124.665 189.683 124.045 189.07 123.48 188.452C121.3 186.077 120.055 183.741 119.67 181.311C119.225 178.497 119.975 176.026 121.725 174.532C121.98 174.318 122.29 174.194 122.58 174.194C122.845 174.194 123.08 174.293 123.28 174.487C123.48 174.682 123.595 175.02 123.585 175.339C123.58 175.488 123.54 175.762 123.33 175.942C120.87 178.038 121.46 181.505 122.83 184.045C123.89 186.017 125.485 187.581 127.02 189.095C127.955 190.011 128.835 190.878 129.605 191.829C130.89 193.413 131.745 194.897 132.285 196.506C132.8 198.04 133.015 199.718 133.225 201.342C133.27 201.695 133.315 202.044 133.365 202.397C133.69 204.798 134.3 209.26 138.01 210.904C138.22 210.999 138.325 211.208 138.375 211.367C138.475 211.681 138.45 212.069 138.31 212.313C138.12 212.637 137.825 212.801 137.43 212.801C137.215 212.801 136.985 212.752 136.765 212.652C133.31 211.118 132.08 206.999 131.71 205.301C131.485 204.275 131.355 203.234 131.22 202.129ZM131.73 216.402C131.705 216.168 131.84 215.969 131.955 215.839C132.18 215.595 132.515 215.431 132.8 215.431C133.5 215.431 133.815 216.049 133.87 216.577C134.02 218.026 133.535 219.47 132.505 220.646C131.4 221.906 129.85 222.658 128.25 222.712C127.365 222.712 127.285 221.97 127.285 221.741C127.285 221.627 127.295 220.626 128.31 220.591C129.27 220.556 130.15 220.138 130.79 219.405C131.5 218.594 131.84 217.498 131.73 216.402Z" fill="#37474F"/>
<path d="M91.45 180.872C95.27 176.918 100.08 174.199 105.36 173.013C105.4 173.003 105.445 172.998 105.485 172.993L106.07 172.914L106.205 172.341C106.66 170.379 107.4 168.75 108.405 167.51L109.14 166.599L108.045 166.18C105.546 165.227 103.187 163.94 101.035 162.355L100.475 161.942L99.955 162.405L96.195 165.782L94.82 167.017C94.605 167.211 94.365 167.311 94.115 167.311C93.65 167.311 93.15 166.957 92.98 166.509C92.845 166.165 92.935 165.861 93.25 165.578L98.13 161.19L98.815 160.572L98.145 159.94C96.4706 158.355 94.9872 156.582 93.725 154.656C93.52 154.342 93.49 154.058 93.635 153.784C93.83 153.425 94.295 153.161 94.74 153.161C95.1 153.161 95.395 153.326 95.61 153.655C97.09 155.906 98.91 157.928 101.02 159.671L101.045 159.691L101.07 159.711C101.12 159.746 101.17 159.79 101.22 159.83L101.24 159.85L101.265 159.87C104.01 162.081 107.1 163.725 110.44 164.751C110.58 164.796 110.695 164.85 110.8 164.93L111.225 165.249L111.7 165.01C112.095 164.811 112.495 164.621 112.895 164.432C113.655 164.073 114.445 163.705 115.2 163.262C118.015 161.618 119.105 158.52 120.065 155.781C120.33 155.024 120.585 154.307 120.865 153.63C121.885 151.169 124.24 147.036 128.58 147.036C128.835 147.036 129.095 147.051 129.355 147.075C131.6 147.315 133.64 148.614 134.825 150.557C135.965 152.429 136.16 154.656 135.365 156.663C135.2 157.081 134.835 157.529 134.315 157.529C134.22 157.529 134.125 157.514 134.025 157.489C133.75 157.415 133.47 157.166 133.32 156.867C133.255 156.742 133.165 156.498 133.255 156.274C134.22 153.839 133.5 151.244 131.495 149.964C130.667 149.439 129.706 149.163 128.725 149.167C127.58 149.167 126.47 149.536 125.605 150.213C124.075 151.398 123.28 153.226 122.655 154.85C122.44 155.413 122.23 155.98 122.025 156.548C121.565 157.808 121.09 159.113 120.505 160.328C119.71 161.992 118.715 163.302 117.55 164.223C116.575 164.995 115.46 165.518 114.28 166.071C113.39 166.489 112.47 166.917 111.6 167.47C108.19 169.627 107.825 174.149 107.535 177.784C107.5 178.253 107.46 178.701 107.42 179.129C106.555 188.074 106.125 197.437 111.095 204.923C112.095 206.432 113.345 207.761 114.555 209.046C116.24 210.839 117.835 212.537 118.795 214.669C119.415 216.039 119.99 218.125 119.245 220.302C118.82 221.542 118.075 222.598 117.285 223.713C116.83 224.361 116.355 225.033 115.94 225.75C115.07 227.259 114.895 228.938 115.435 230.611C116.105 232.673 117.79 234.486 119.95 235.457C121.14 235.995 122.46 236.264 123.865 236.264C126.72 236.264 129.985 235.153 133.575 232.957C133.76 232.847 133.935 232.788 134.105 232.788C134.575 232.788 134.955 233.236 135.075 233.654C135.155 233.933 135.2 234.451 134.62 234.805C131.99 236.413 127.97 238.331 123.78 238.331C121.755 238.331 119.9 237.873 118.255 236.961C116.884 236.203 115.699 235.152 114.785 233.883L114.035 232.842L113.36 233.933C112.08 236.005 110.105 237.728 107.8 238.784L107.44 238.948L107.335 239.327C107.29 239.486 107.205 239.636 107.08 239.775C106.05 240.921 105.805 242.425 106.425 243.799C107.06 245.209 108.48 246.12 110.05 246.12C110.45 246.12 110.87 246.409 111.07 246.812C111.18 247.027 111.26 247.345 111.04 247.639C110.25 248.695 109.915 250.099 110.145 251.399C110.35 252.58 110.99 253.581 111.955 254.218C112.545 254.612 112.48 255.165 112.39 255.458C112.265 255.872 111.915 256.285 111.485 256.285C111.32 256.285 111.145 256.225 110.965 256.101C108.62 254.542 107.425 251.454 108.13 248.755L108.315 248.043L107.63 247.759C106.19 247.161 105.065 246.085 104.475 244.731C103.96 243.56 103.85 242.265 104.165 240.99L104.44 239.865L103.28 239.94C103.03 239.954 102.78 239.964 102.53 239.964C102.315 239.964 102.095 239.959 101.88 239.944C101.035 239.9 100.825 239.163 100.84 238.739C100.845 238.525 100.925 237.818 101.705 237.818H101.785C101.99 237.828 102.195 237.833 102.395 237.833C106.625 237.833 110.505 235.328 112.285 231.448C112.365 231.269 113.17 230.173 113.17 230.173C112.825 228.355 113.105 226.537 113.975 224.919C114.315 224.286 114.775 223.674 115.26 223.021C116.21 221.751 117.19 220.436 117.445 218.783C117.79 216.557 116.47 214.555 115.285 213.06C114.51 212.084 113.66 211.178 112.835 210.296C112.085 209.494 111.31 208.663 110.615 207.806C109.13 205.973 107.955 203.956 107.02 201.64C105.49 197.86 104.765 193.278 104.8 187.631C104.825 183.537 105.07 179.747 105.525 176.36L105.7 175.065L104.44 175.434C98.555 177.142 93.495 180.768 90.185 185.639C86.195 191.52 84.805 198.866 86.38 205.794C86.46 206.138 86.4 206.432 86.205 206.676C85.98 206.959 85.585 207.144 85.2 207.144C84.74 207.144 84.455 206.905 84.345 206.437C83.5859 203.107 83.4351 199.669 83.9 196.287C84.495 191.954 86.175 187.74 88.76 184.11L89.5 183.069L88.25 182.79C82.04 181.4 76.58 177.446 73.27 171.938C73.07 171.604 73.05 171.295 73.22 171.001C73.425 170.643 73.88 170.379 74.3 170.379C74.645 170.379 74.92 170.548 75.12 170.877C78.425 176.375 84.05 180.09 90.55 181.067L90.61 181.081L91.105 181.221L91.45 180.872Z" fill="#37474F"/>
<path d="M95.32 138.569L96.19 138.3L95.865 137.448C95.165 135.611 94.825 133.614 94.89 131.666C94.92 130.675 95.9 130.645 96.015 130.645C96.335 130.645 96.62 130.75 96.8 130.934C96.955 131.093 97.03 131.323 97.025 131.611C96.955 133.843 97.46 136.104 98.45 137.991L98.52 138.121L98.625 138.22C98.8 138.38 98.93 138.604 98.995 138.843L99.03 138.977L99.11 139.092C100.02 140.427 101.165 141.487 102.515 142.24C103.905 143.011 105.51 143.42 107.155 143.42C109.18 143.42 111.09 142.777 112.525 141.617C113.45 140.87 114.195 139.978 114.915 139.112C115.565 138.335 116.175 137.598 116.895 136.98C118.354 135.732 120.023 134.751 121.825 134.082C123.475 133.464 125.29 133.15 127.22 133.15C127.365 133.15 127.505 133.15 127.645 133.155C128.02 133.165 128.405 133.185 128.795 133.21C129.34 133.24 129.9 133.275 130.465 133.275C131.38 133.275 132.735 133.2 133.965 132.533C136.92 130.934 138.335 127.373 137.26 124.25C137.155 123.942 137.175 123.688 137.32 123.483C137.51 123.219 137.895 123.045 138.295 123.045C138.59 123.045 139.125 123.14 139.345 123.787C140.665 127.622 138.755 132.353 135.085 134.341C133.445 135.227 131.675 135.347 130.155 135.347C129.54 135.347 128.925 135.327 128.305 135.302C128.02 135.292 127.735 135.287 127.45 135.287C125.12 135.287 123.135 135.7 121.38 136.547C119.005 137.697 117.39 139.386 116 141.039C114.335 143.021 112.77 144.207 110.93 144.884C109.736 145.321 108.473 145.544 107.2 145.542C104.425 145.542 101.615 144.506 99.49 142.703C98.82 142.135 98.19 141.458 97.625 140.696L97.275 140.227L96.71 140.382C91.44 141.826 86.89 144.944 83.89 149.157C80.145 154.422 78.76 161.045 80.095 167.331C80.17 167.679 80.105 167.978 79.905 168.222C79.675 168.506 79.275 168.69 78.895 168.69C78.445 168.69 78.165 168.456 78.07 167.993C76.585 161.001 78.01 153.789 81.975 148.211C85.24 143.629 89.98 140.203 95.32 138.569Z" fill="#37474F"/>
<path d="M101.84 115.983C101.77 115.983 101.71 115.973 101.65 115.948C97.815 114.349 94.45 111.725 91.92 108.363L91.295 107.536L90.6 108.303C88.9 110.181 86.905 112.746 86.55 115.913C86.2 119.046 87.525 121.67 90.1 122.94C92 123.877 94.13 124.096 96.19 124.305C96.72 124.36 97.25 124.415 97.765 124.479C100.485 124.828 103.34 125.406 105.78 127.224C107.055 128.175 108.255 129.365 109.545 130.959L110.425 132.045L110.995 130.775C112.21 128.06 114.32 125.71 116.94 124.156L117.905 123.583L117.095 122.811C115.423 121.217 113.982 119.398 112.815 117.407C111.265 114.763 108.835 109.628 110.005 104.966C111.055 100.783 114.95 97.6252 118.25 96.0664C121.13 94.7067 124.27 94.0145 127.57 94.0145C132.915 94.0145 138.555 95.7974 143.875 99.1691C144.46 99.5377 144.405 100.071 144.325 100.359C144.2 100.783 143.84 101.211 143.385 101.211C143.22 101.211 143.04 101.151 142.86 101.037C138.275 98.1332 133.78 96.4847 129.5 96.151C128.915 96.1062 128.32 96.0813 127.735 96.0813C124.385 96.0813 121.2 96.8533 118.52 98.3075C116.55 99.3783 111.95 102.381 111.85 107.138C111.755 111.57 114.185 115.769 115.64 117.88C116.82 119.589 118.265 121.138 119.935 122.482L120.19 122.686L120.515 122.672C121.145 122.672 121.37 123.214 121.425 123.379L121.52 123.658L121.765 123.817C122.395 124.23 123.045 124.614 123.69 124.953C124.11 125.177 124.27 125.51 124.16 125.944C124.045 126.407 123.605 126.89 123.07 126.89C122.9 126.89 122.725 126.84 122.55 126.75C121.765 126.337 120.98 125.864 120.215 125.341L119.825 125.077L119.39 125.261C115.46 126.945 112.62 130.685 111.975 135.023C111.95 135.177 111.885 135.635 111.165 135.635C110.705 135.635 110.225 135.421 110.005 135.112L109.87 134.918C107.84 132.06 105.545 128.822 101.99 127.542C100.015 126.83 97.875 126.566 95.805 126.312C91.955 125.839 88.315 125.396 85.955 122.193C84.295 119.942 83.895 116.605 84.92 113.483C85.915 110.455 88.015 107.95 89.74 106.112L90.15 105.669L89.87 105.136C88.21 101.973 87.3 98.4619 87.245 94.9806C87.24 94.6918 87.32 94.4577 87.485 94.2934C87.67 94.1041 87.96 93.9995 88.28 93.9995C88.39 93.9995 89.36 94.0294 89.375 95.0105C89.5 103.044 94.695 110.783 102.005 113.836C102.335 113.976 103.075 114.379 102.85 115.176C102.745 115.579 102.24 115.983 101.84 115.983Z" fill="#37474F"/>
<path d="M121.765 74.0979C121.695 74.1178 121.62 74.1278 121.535 74.1278C121.08 74.1278 120.53 73.8439 120.475 73.4654C120.215 71.6276 118.54 70.3477 116.405 70.3477C115.845 70.3477 115.3 70.4423 114.785 70.6266C111.87 71.6724 110.295 74.9645 109.365 77.3451C106.975 83.4709 105.805 90.5082 105.68 99.4978C105.665 100.479 104.7 100.504 104.59 100.504C104.27 100.504 103.975 100.394 103.79 100.21C103.625 100.046 103.545 99.8116 103.55 99.5227C103.61 95.2097 103.91 91.33 104.47 87.6594C105.01 84.1184 105.835 80.8164 106.92 77.8431C107.89 75.1786 109.075 72.4444 111.145 70.5021C112.705 69.0378 114.545 68.2659 116.455 68.2659C116.99 68.2659 117.535 68.3256 118.075 68.4501C119.965 68.8834 122.155 70.3925 122.48 72.6884C122.535 73.0371 122.565 73.8787 121.765 74.0979ZM88.045 129.808C88.045 130.476 87.47 130.824 86.905 130.874C84.4 131.093 82.385 133.15 82.005 135.864C81.95 136.243 81.4 136.522 80.945 136.522C80.86 136.522 80.785 136.512 80.715 136.492C79.895 136.268 79.955 135.351 79.995 135.078C80.465 131.726 83.435 129.061 87.055 128.738H87.11C87.605 128.743 88.045 129.335 88.045 129.808ZM92.93 202.044C93.09 201.949 93.255 201.904 93.42 201.904C93.785 201.904 94.165 202.123 94.43 202.492C96.52 205.381 99.98 207.109 103.685 207.109H103.755C104.7 207.109 104.75 207.98 104.75 208.155C104.75 208.264 104.725 209.225 103.745 209.23H103.66C99.23 209.23 95.165 207.114 92.5 203.428C92.35 203.219 92.38 202.955 92.405 202.816C92.48 202.497 92.69 202.188 92.93 202.044ZM104.99 229.097C104.75 229.097 104.52 228.992 104.315 228.783C101.645 226.139 101.075 221.851 102.95 218.583C103.14 218.25 103.41 218.08 103.745 218.08C104.165 218.08 104.605 218.334 104.815 218.703C104.99 219.002 104.98 219.326 104.78 219.669C103.36 222.139 103.785 225.272 105.82 227.284C106.135 227.598 106.215 227.947 106.06 228.32C105.88 228.763 105.415 229.097 104.99 229.097ZM90.775 219.131C92.12 219.131 93.465 219.46 94.66 220.073C95.08 220.287 95.24 220.615 95.135 221.044C95.02 221.512 94.575 222 94.03 222C93.86 222 93.685 221.955 93.51 221.861C92.69 221.437 91.76 221.213 90.815 221.213C89.18 221.213 87.585 221.876 86.435 223.026C86.225 223.235 86 223.34 85.76 223.34C85.34 223.34 84.88 223.006 84.695 222.568C84.535 222.189 84.615 221.836 84.93 221.522C86.475 219.983 88.55 219.131 90.775 219.131ZM122.385 246.474C122.555 246.474 122.73 246.523 122.91 246.628C127.955 249.482 130.565 255.637 129.11 261.265C128.955 261.863 128.53 261.987 128.205 261.987C127.815 261.987 127.425 261.808 127.21 261.529C127.03 261.295 126.98 261.011 127.065 260.678C128.275 255.996 126.07 250.856 121.82 248.456C121.28 248.152 121.27 247.709 121.355 247.39C121.465 246.947 121.87 246.474 122.385 246.474Z" fill="#37474F"/>
<path d="M92.98 170.075C91.01 170.075 89.41 168.481 89.41 166.519C89.41 164.557 91.01 162.963 92.98 162.963C94.95 162.963 96.55 164.557 96.55 166.519C96.55 168.481 94.945 170.075 92.98 170.075Z" fill="url(#paint0_radial_1026_549)"/>
<path d="M92.98 163.331C94.745 163.331 96.175 164.756 96.175 166.514C96.175 168.272 94.745 169.696 92.98 169.696C91.215 169.696 89.785 168.272 89.785 166.514C89.785 164.756 91.215 163.331 92.98 163.331ZM92.98 162.584C90.805 162.584 89.035 164.347 89.035 166.514C89.035 168.68 90.805 170.443 92.98 170.443C95.155 170.443 96.925 168.68 96.925 166.514C96.925 164.347 95.155 162.584 92.98 162.584Z" fill="white"/>
<path d="M184.1 199.977C182.13 199.977 180.53 198.383 180.53 196.421C180.53 194.459 182.13 192.865 184.1 192.865C186.07 192.865 187.67 194.459 187.67 196.421C187.67 198.383 186.065 199.977 184.1 199.977Z" fill="url(#paint1_radial_1026_549)"/>
<path d="M184.1 193.239C185.865 193.239 187.295 194.663 187.295 196.421C187.295 198.179 185.865 199.603 184.1 199.603C182.335 199.603 180.905 198.179 180.905 196.421C180.905 194.663 182.335 193.239 184.1 193.239ZM184.1 192.491C181.925 192.491 180.155 194.255 180.155 196.421C180.155 198.587 181.925 200.35 184.1 200.35C186.275 200.35 188.045 198.587 188.045 196.421C188.045 194.255 186.275 192.491 184.1 192.491Z" fill="white"/>
<path d="M215.155 132.299C213.185 132.299 211.585 130.705 211.585 128.743C211.585 126.78 213.185 125.187 215.155 125.187C217.125 125.187 218.725 126.78 218.725 128.743C218.725 130.705 217.125 132.299 215.155 132.299Z" fill="url(#paint2_radial_1026_549)"/>
<path d="M215.155 125.56C216.92 125.56 218.35 126.985 218.35 128.743C218.35 130.501 216.92 131.925 215.155 131.925C213.39 131.925 211.96 130.501 211.96 128.743C211.96 126.985 213.39 125.56 215.155 125.56ZM215.155 124.813C212.98 124.813 211.21 126.576 211.21 128.743C211.21 130.909 212.98 132.672 215.155 132.672C217.33 132.672 219.1 130.909 219.1 128.743C219.1 126.576 217.33 124.813 215.155 124.813Z" fill="white"/>
<path d="M170.965 91.3202C168.995 91.3202 167.395 89.7265 167.395 87.7642C167.395 85.802 168.995 84.2083 170.965 84.2083C172.935 84.2083 174.535 85.802 174.535 87.7642C174.535 89.7265 172.93 91.3202 170.965 91.3202Z" fill="url(#paint3_radial_1026_549)"/>
<path d="M170.965 84.5818C172.73 84.5818 174.16 86.0062 174.16 87.7642C174.16 89.5223 172.73 90.9467 170.965 90.9467C169.2 90.9467 167.77 89.5223 167.77 87.7642C167.77 86.0062 169.2 84.5818 170.965 84.5818ZM170.965 83.8347C168.79 83.8347 167.02 85.5978 167.02 87.7642C167.02 89.9307 168.79 91.6937 170.965 91.6937C173.14 91.6937 174.91 89.9307 174.91 87.7642C174.91 85.5978 173.14 83.8347 170.965 83.8347Z" fill="white"/>
<path d="M102.64 120.002C100.67 120.002 99.07 118.408 99.07 116.446C99.07 114.484 100.67 112.89 102.64 112.89C104.61 112.89 106.21 114.484 106.21 116.446C106.21 118.408 104.605 120.002 102.64 120.002Z" fill="url(#paint4_radial_1026_549)"/>
<path d="M102.64 113.264C104.405 113.264 105.835 114.688 105.835 116.446C105.835 118.204 104.405 119.629 102.64 119.629C100.875 119.629 99.445 118.204 99.445 116.446C99.445 114.688 100.875 113.264 102.64 113.264ZM102.64 112.517C100.465 112.517 98.695 114.28 98.695 116.446C98.695 118.613 100.465 120.376 102.64 120.376C104.815 120.376 106.585 118.613 106.585 116.446C106.585 114.275 104.815 112.517 102.64 112.517Z" fill="white"/>
<path d="M133.895 237.265C131.925 237.265 130.325 235.671 130.325 233.709C130.325 231.747 131.925 230.153 133.895 230.153C135.865 230.153 137.465 231.747 137.465 233.709C137.465 235.671 135.865 237.265 133.895 237.265Z" fill="url(#paint5_radial_1026_549)"/>
<path d="M133.895 230.527C135.66 230.527 137.09 231.951 137.09 233.709C137.09 235.467 135.66 236.892 133.895 236.892C132.13 236.892 130.7 235.467 130.7 233.709C130.7 231.951 132.13 230.527 133.895 230.527ZM133.895 229.78C131.72 229.78 129.95 231.543 129.95 233.709C129.95 235.876 131.72 237.639 133.895 237.639C136.07 237.639 137.84 235.876 137.84 233.709C137.84 231.543 136.07 229.78 133.895 229.78Z" fill="white"/>
<path d="M85.19 209.405C83.22 209.405 81.62 207.811 81.62 205.849C81.62 203.886 83.22 202.293 85.19 202.293C87.16 202.293 88.76 203.886 88.76 205.849C88.76 207.811 87.155 209.405 85.19 209.405Z" fill="url(#paint6_radial_1026_549)"/>
<path d="M85.19 202.666C86.955 202.666 88.385 204.091 88.385 205.849C88.385 207.607 86.955 209.031 85.19 209.031C83.425 209.031 81.995 207.607 81.995 205.849C81.995 204.091 83.425 202.666 85.19 202.666ZM85.19 201.919C83.015 201.919 81.245 203.682 81.245 205.849C81.245 208.015 83.015 209.778 85.19 209.778C87.365 209.778 89.135 208.015 89.135 205.849C89.135 203.682 87.365 201.919 85.19 201.919Z" fill="white"/>
<path d="M212.115 205.6C210.145 205.6 208.545 204.006 208.545 202.044C208.545 200.082 210.145 198.488 212.115 198.488C214.085 198.488 215.685 200.082 215.685 202.044C215.685 204.006 214.085 205.6 212.115 205.6Z" fill="url(#paint7_radial_1026_549)"/>
<path d="M212.115 198.861C213.88 198.861 215.31 200.286 215.31 202.044C215.31 203.802 213.88 205.226 212.115 205.226C210.35 205.226 208.92 203.802 208.92 202.044C208.92 200.286 210.35 198.861 212.115 198.861ZM212.115 198.114C209.94 198.114 208.17 199.877 208.17 202.044C208.17 204.21 209.94 205.973 212.115 205.973C214.29 205.973 216.06 204.21 216.06 202.044C216.06 199.877 214.29 198.114 212.115 198.114Z" fill="white"/>
<path d="M166.74 126.616C164.77 126.616 163.17 125.022 163.17 123.06C163.17 121.098 164.77 119.504 166.74 119.504C168.71 119.504 170.31 121.098 170.31 123.06C170.31 125.022 168.71 126.616 166.74 126.616Z" fill="url(#paint8_radial_1026_549)"/>
<path d="M166.74 119.878C168.505 119.878 169.935 121.302 169.935 123.06C169.935 124.818 168.505 126.243 166.74 126.243C164.975 126.243 163.545 124.818 163.545 123.06C163.545 121.302 164.975 119.878 166.74 119.878ZM166.74 119.131C164.565 119.131 162.795 120.894 162.795 123.06C162.795 125.227 164.565 126.99 166.74 126.99C168.915 126.99 170.685 125.227 170.685 123.06C170.685 120.894 168.915 119.131 166.74 119.131Z" fill="white"/>
<path d="M133.895 186.032C131.925 186.032 130.325 184.438 130.325 182.476C130.325 180.514 131.925 178.92 133.895 178.92C135.865 178.92 137.465 180.514 137.465 182.476C137.465 184.438 135.865 186.032 133.895 186.032Z" fill="url(#paint9_radial_1026_549)"/>
<path d="M133.895 179.293C135.66 179.293 137.09 180.718 137.09 182.476C137.09 184.234 135.66 185.658 133.895 185.658C132.13 185.658 130.7 184.234 130.7 182.476C130.7 180.718 132.13 179.293 133.895 179.293ZM133.895 178.546C131.72 178.546 129.95 180.309 129.95 182.476C129.95 184.642 131.72 186.405 133.895 186.405C136.07 186.405 137.84 184.642 137.84 182.476C137.84 180.304 136.07 178.546 133.895 178.546Z" fill="white"/>
<path d="M226.09 170.075C224.12 170.075 222.52 168.481 222.52 166.519C222.52 164.557 224.12 162.963 226.09 162.963C228.06 162.963 229.66 164.557 229.66 166.519C229.66 168.481 228.06 170.075 226.09 170.075Z" fill="url(#paint10_radial_1026_549)"/>
<path d="M226.09 163.331C227.855 163.331 229.285 164.756 229.285 166.514C229.285 168.272 227.855 169.696 226.09 169.696C224.325 169.696 222.895 168.272 222.895 166.514C222.895 164.756 224.325 163.331 226.09 163.331ZM226.09 162.584C223.915 162.584 222.145 164.347 222.145 166.514C222.145 168.68 223.915 170.443 226.09 170.443C228.265 170.443 230.035 168.68 230.035 166.514C230.035 164.347 228.265 162.584 226.09 162.584Z" fill="white"/>
<mask id="path-36-inside-1_1026_549" fill="white">
<path d="M255.71 143.893C255.73 144.227 255.75 144.56 255.75 144.894C277.55 147.285 289.96 150.338 289.96 153.291C289.96 156.478 275.485 159.785 250.345 162.251C226.51 164.586 193.08 166.165 153.29 166.175H151.765C111.875 166.14 78.44 164.527 54.735 162.161C30.165 159.706 16.045 156.444 16.045 153.296C16.045 150.387 28.095 147.379 49.305 145.004C49.305 144.67 49.315 144.336 49.335 144.003C28.48 146.323 15 149.471 15 153.291C15 157.42 30.755 160.762 54.545 163.132C80.655 165.737 116.445 167.176 151.735 167.211H153.31C188.485 167.201 224.25 165.797 250.515 163.227C274.83 160.846 291 157.474 291 153.291C291 149.411 277.105 146.229 255.71 143.893ZM236.83 197.975L236.84 198.134C236.86 198.443 236.865 198.752 236.88 199.061C263.255 201.969 264.675 205.191 264.675 205.834C264.675 206.496 263.195 209.868 234.795 212.831C233.89 212.926 232.965 213.021 232.005 213.115C211.525 215.112 184.565 216.243 155.745 216.333C154.515 216.338 153.285 216.343 152.045 216.343C151.125 216.343 150.215 216.338 149.3 216.338C120.125 216.268 92.795 215.132 72.09 213.115C71.47 213.055 70.885 212.996 70.29 212.936C40.95 209.948 39.42 206.506 39.42 205.839C39.42 205.186 40.88 201.894 68.175 198.961C68.19 198.687 68.19 198.413 68.21 198.139L68.23 197.875C50.21 199.798 38.38 202.472 38.38 205.839C38.38 209.36 51.3 212.124 70.705 214.061C91.92 216.178 120.89 217.314 149.225 217.383C150.165 217.383 151.11 217.388 152.045 217.388C153.3 217.388 154.56 217.383 155.82 217.383C184.3 217.289 213.315 216.118 234.38 213.962C253.235 212.029 265.715 209.305 265.715 205.844C265.715 202.527 254.31 199.887 236.83 197.975ZM62.6 110.335C84.655 113.104 118.705 114.554 151.59 114.569H153.455C186.505 114.529 220.605 113.035 242.42 110.221C256.7 108.378 265.715 105.967 265.715 103.024C265.715 99.6773 254.065 97.0227 236.275 95.1053C236.52 95.4888 236.775 95.8722 237.01 96.2657C263.26 99.1693 264.67 102.382 264.67 103.024C264.67 103.622 263.455 106.441 242.19 109.17C239.205 109.553 235.83 109.932 232 110.305C210.985 112.352 183.15 113.493 153.48 113.528C153 113.528 152.525 113.533 152.04 113.533H151.555C121.53 113.523 93.32 112.377 72.085 110.305C68.9921 110.007 65.9035 109.667 62.82 109.284C40.68 106.52 39.415 103.632 39.415 103.024C39.415 102.372 40.875 99.0896 68.1 96.1512C68.335 95.7627 68.585 95.3792 68.83 94.9907C50.465 96.9181 38.37 99.6125 38.37 103.019C38.375 106.027 47.785 108.478 62.6 110.335Z"/>
</mask>
<path d="M255.71 143.893L256.036 140.911L252.503 140.525L252.715 144.073L255.71 143.893ZM255.75 144.894H252.75V147.583L255.423 147.876L255.75 144.894ZM250.345 162.251L250.638 165.236L250.638 165.236L250.345 162.251ZM153.29 166.175V169.175H153.291L153.29 166.175ZM151.765 166.175L151.762 169.175H151.765V166.175ZM54.735 162.161L54.4367 165.146L54.4371 165.146L54.735 162.161ZM49.305 145.004L49.6389 147.985L52.305 147.686V145.004H49.305ZM49.335 144.003L52.3296 144.182L52.5427 140.627L49.0032 141.021L49.335 144.003ZM54.545 163.132L54.8428 160.147L54.8425 160.147L54.545 163.132ZM151.735 167.211L151.732 170.211H151.735V167.211ZM153.31 167.211V170.211H153.311L153.31 167.211ZM250.515 163.227L250.807 166.213L250.807 166.213L250.515 163.227ZM236.83 197.975L237.156 194.993L233.613 194.605L233.836 198.163L236.83 197.975ZM236.84 198.134L233.846 198.322L233.846 198.328L236.84 198.134ZM236.88 199.061L233.884 199.206L234.008 201.762L236.551 202.043L236.88 199.061ZM234.795 212.831L234.484 209.848L234.483 209.848L234.795 212.831ZM232.005 213.115L232.296 216.101L232.299 216.101L232.005 213.115ZM155.745 216.333L155.736 213.333L155.733 213.333L155.745 216.333ZM149.3 216.338L149.293 219.338H149.3V216.338ZM72.09 213.115L72.3809 210.129L72.3778 210.129L72.09 213.115ZM70.29 212.936L69.986 215.92L69.9902 215.921L70.29 212.936ZM68.175 198.961L68.4956 201.944L71.0311 201.671L71.1705 199.125L68.175 198.961ZM68.21 198.139L65.2186 197.913L65.218 197.921L68.21 198.139ZM68.23 197.875L71.2214 198.102L71.4936 194.51L67.9118 194.892L68.23 197.875ZM70.705 214.061L70.407 217.047L70.4072 217.047L70.705 214.061ZM149.225 217.383L149.218 220.383H149.225V217.383ZM155.82 217.383V220.383L155.83 220.383L155.82 217.383ZM234.38 213.962L234.686 216.946L234.686 216.946L234.38 213.962ZM62.6 110.335L62.9737 107.359L62.9733 107.359L62.6 110.335ZM151.59 114.569L151.589 117.569H151.59V114.569ZM153.455 114.569V117.569L153.459 117.569L153.455 114.569ZM242.42 110.221L242.804 113.196L242.804 113.196L242.42 110.221ZM236.275 95.1053L236.596 92.1226L230.381 91.4527L233.747 96.7204L236.275 95.1053ZM237.01 96.2657L234.434 97.804L235.199 99.0836L236.68 99.2475L237.01 96.2657ZM242.19 109.17L241.808 106.194L241.808 106.194L242.19 109.17ZM232 110.305L232.291 113.291L232.291 113.291L232 110.305ZM153.48 113.528V116.528L153.484 116.528L153.48 113.528ZM151.555 113.533L151.554 116.533H151.555V113.533ZM72.085 110.305L72.3763 107.32L72.3727 107.319L72.085 110.305ZM62.82 109.284L62.4483 112.261L62.4506 112.262L62.82 109.284ZM68.1 96.1512L68.4219 99.1338L69.8983 98.9745L70.6669 97.7039L68.1 96.1512ZM68.83 94.9907L71.3675 96.5911L74.6655 91.3618L68.5169 92.0071L68.83 94.9907ZM38.37 103.019H35.37L35.37 103.024L38.37 103.019ZM252.715 144.073C252.736 144.421 252.75 144.665 252.75 144.894H258.75C258.75 144.456 258.724 144.032 258.705 143.714L252.715 144.073ZM255.423 147.876C266.275 149.066 274.676 150.41 280.314 151.795C283.157 152.493 285.143 153.165 286.358 153.762C286.973 154.064 287.231 154.271 287.294 154.333C287.364 154.4 286.96 154.044 286.96 153.291H292.96C292.96 151.8 292.168 150.702 291.474 150.028C290.774 149.348 289.892 148.813 289.003 148.377C287.209 147.495 284.73 146.701 281.746 145.968C275.729 144.49 267.025 143.113 256.077 141.912L255.423 147.876ZM286.96 153.291C286.96 152.477 287.426 152.131 287.282 152.26C287.162 152.368 286.809 152.619 286.062 152.959C284.591 153.628 282.231 154.364 278.917 155.116C272.335 156.609 262.574 158.037 250.052 159.265L250.638 165.236C263.256 163.999 273.303 162.541 280.243 160.967C283.691 160.186 286.52 159.343 288.549 158.419C289.552 157.963 290.526 157.412 291.295 156.72C292.042 156.049 292.96 154.901 292.96 153.291H286.96ZM250.052 159.265C226.34 161.589 193.011 163.165 153.289 163.175L153.291 169.175C193.149 169.165 226.68 167.584 250.638 165.236L250.052 159.265ZM153.29 163.175H151.765V169.175H153.29V163.175ZM151.768 163.175C111.946 163.14 78.6137 161.529 55.0329 159.176L54.4371 165.146C78.2663 167.524 111.804 169.14 151.762 169.175L151.768 163.175ZM55.0333 159.176C42.7961 157.953 33.268 156.539 26.8477 155.064C23.6142 154.322 21.3177 153.597 19.8906 152.939C19.1662 152.605 18.83 152.362 18.7194 152.262C18.5894 152.143 19.045 152.492 19.045 153.296H13.045C13.045 154.887 13.9419 156.026 14.68 156.698C15.4376 157.388 16.3965 157.935 17.3797 158.388C19.368 159.305 22.1371 160.139 25.5048 160.912C32.287 162.469 42.1039 163.914 54.4367 165.146L55.0333 159.176ZM19.045 153.296C19.045 154.039 18.6517 154.396 18.7091 154.34C18.763 154.287 19.0049 154.088 19.5973 153.792C20.7667 153.21 22.6874 152.549 25.4472 151.861C30.9201 150.496 39.0822 149.167 49.6389 147.985L48.9711 142.022C38.3178 143.215 29.8499 144.579 23.9953 146.039C21.0913 146.763 18.674 147.549 16.9211 148.422C16.0524 148.855 15.1872 149.387 14.4993 150.064C13.8149 150.738 13.045 151.826 13.045 153.296H19.045ZM52.305 145.004C52.305 144.73 52.3132 144.456 52.3296 144.182L46.3404 143.823C46.3168 144.216 46.305 144.61 46.305 145.004H52.305ZM49.0032 141.021C38.5326 142.186 29.7793 143.572 23.5917 145.181C20.5222 145.98 17.9058 146.877 15.9937 147.922C15.039 148.443 14.1094 149.082 13.3871 149.887C12.6452 150.714 12 151.863 12 153.291H18C18 153.763 17.7761 153.979 17.8528 153.894C17.9491 153.787 18.2356 153.534 18.8705 153.187C20.1376 152.495 22.1947 151.744 25.102 150.988C30.8682 149.488 39.2824 148.14 49.6668 146.984L49.0032 141.021ZM12 153.291C12 154.838 12.7546 156.052 13.5719 156.893C14.3742 157.718 15.4086 158.375 16.4842 158.917C18.645 160.005 21.625 160.947 25.1556 161.789C32.2663 163.484 42.3114 164.928 54.2475 166.117L54.8425 160.147C42.9886 158.966 33.2612 157.553 26.5469 155.953C23.165 155.146 20.7194 154.331 19.1827 153.558C18.4095 153.168 18.0272 152.868 17.8749 152.711C17.7377 152.57 18 152.776 18 153.291H12ZM54.2472 166.117C80.4869 168.735 116.382 170.176 151.732 170.211L151.738 164.211C116.508 164.176 80.8231 162.739 54.8428 160.147L54.2472 166.117ZM151.735 170.211H153.31V164.211H151.735V170.211ZM153.311 170.211C188.547 170.201 224.415 168.795 250.807 166.213L250.223 160.241C224.085 162.798 188.423 164.201 153.309 164.211L153.311 170.211ZM250.807 166.213C263.005 165.018 273.284 163.565 280.562 161.855C284.176 161.007 287.222 160.056 289.428 158.96C290.526 158.415 291.579 157.755 292.395 156.926C293.226 156.083 294 154.859 294 153.291H288C288 152.769 288.269 152.565 288.12 152.716C287.957 152.882 287.557 153.19 286.759 153.587C285.173 154.374 282.657 155.2 279.19 156.014C272.304 157.632 262.34 159.055 250.223 160.241L250.807 166.213ZM294 153.291C294 151.841 293.335 150.679 292.579 149.849C291.841 149.039 290.892 148.398 289.916 147.872C287.958 146.819 285.275 145.913 282.122 145.107C275.765 143.481 266.776 142.083 256.036 140.911L255.384 146.875C266.039 148.039 274.695 149.4 280.635 150.919C283.629 151.685 285.757 152.448 287.074 153.156C287.734 153.511 288.037 153.773 288.144 153.89C288.231 153.985 288 153.771 288 153.291H294ZM233.836 198.163L233.846 198.322L239.834 197.946L239.824 197.787L233.836 198.163ZM233.846 198.328C233.867 198.641 233.861 198.732 233.884 199.206L239.876 198.915C239.87 198.772 239.853 198.245 239.834 197.94L233.846 198.328ZM236.551 202.043C249.678 203.49 256.363 204.995 259.697 206.135C261.377 206.71 262.007 207.128 262.162 207.253C262.298 207.361 261.675 206.907 261.675 205.834H267.675C267.675 204.44 266.875 203.342 265.92 202.575C264.985 201.824 263.611 201.133 261.639 200.459C257.669 199.1 250.457 197.54 237.209 196.079L236.551 202.043ZM261.675 205.834C261.675 204.74 262.322 204.294 262.152 204.427C261.962 204.576 261.261 205.02 259.443 205.621C255.837 206.814 248.625 208.372 234.484 209.848L235.106 215.815C249.365 214.327 257.093 212.718 261.327 211.318C263.429 210.623 264.873 209.916 265.848 209.153C266.843 208.375 267.675 207.259 267.675 205.834H261.675ZM234.483 209.848C233.583 209.942 232.664 210.036 231.711 210.13L232.299 216.101C233.266 216.005 234.197 215.91 235.107 215.815L234.483 209.848ZM231.714 210.129C211.357 212.115 184.497 213.243 155.736 213.333L155.754 219.333C184.633 219.243 211.693 218.11 232.296 216.101L231.714 210.129ZM155.733 213.333C154.502 213.338 153.278 213.343 152.045 213.343V219.343C153.292 219.343 154.528 219.337 155.757 219.333L155.733 213.333ZM152.045 213.343C151.59 213.343 151.136 213.341 150.679 213.34C150.223 213.339 149.762 213.338 149.3 213.338V219.338C149.753 219.338 150.205 219.339 150.662 219.34C151.119 219.341 151.58 219.343 152.045 219.343V213.343ZM149.307 213.338C120.192 213.268 92.9621 212.134 72.3809 210.129L71.7991 216.101C92.6279 218.13 120.058 219.268 149.293 219.338L149.307 213.338ZM72.3778 210.129C71.7658 210.07 71.1912 210.011 70.5898 209.951L69.9902 215.921C70.5788 215.98 71.1742 216.041 71.8021 216.101L72.3778 210.129ZM70.594 209.951C55.9818 208.463 48.5201 206.881 44.7804 205.664C42.8952 205.051 42.1572 204.593 41.9471 204.432C41.7499 204.28 42.42 204.722 42.42 205.839H36.42C36.42 207.289 37.2814 208.412 38.2879 209.187C39.2816 209.951 40.7598 210.666 42.9246 211.37C47.2849 212.788 55.2582 214.42 69.986 215.92L70.594 209.951ZM42.42 205.839C42.42 206.926 41.7824 207.376 41.9373 207.253C42.1102 207.116 42.7742 206.686 44.5189 206.099C47.98 204.934 54.9079 203.404 68.4956 201.944L67.8544 195.978C54.1471 197.451 46.6975 199.035 42.6049 200.412C40.5727 201.096 39.1657 201.794 38.2119 202.55C37.2401 203.32 36.42 204.426 36.42 205.839H42.42ZM71.1705 199.125C71.2037 198.519 71.1764 198.709 71.202 198.358L65.218 197.921C65.2031 198.124 65.1966 198.314 65.1922 198.454C65.1871 198.612 65.1846 198.703 65.1795 198.797L71.1705 199.125ZM71.2014 198.366L71.2214 198.102L65.2386 197.649L65.2186 197.913L71.2014 198.366ZM67.9118 194.892C58.8595 195.858 51.227 197.025 45.8056 198.409C43.1193 199.094 40.7956 199.877 39.0797 200.807C38.223 201.272 37.3663 201.854 36.6922 202.604C35.9973 203.377 35.38 204.47 35.38 205.839H41.38C41.38 206.366 41.1324 206.639 41.1548 206.614C41.1981 206.566 41.4064 206.371 41.9403 206.082C43.0057 205.504 44.7657 204.866 47.2894 204.222C52.2881 202.946 59.5805 201.815 68.5482 200.858L67.9118 194.892ZM35.38 205.839C35.38 207.271 36.0539 208.398 36.7867 209.178C37.5004 209.938 38.4081 210.527 39.322 211C41.1561 211.951 43.6525 212.754 46.5577 213.459C52.4178 214.882 60.6632 216.074 70.407 217.047L71.003 211.076C61.3418 210.112 53.4247 208.952 47.9735 207.629C45.2231 206.961 43.2768 206.292 42.0819 205.673C41.4814 205.362 41.2281 205.143 41.1594 205.069C41.1099 205.017 41.38 205.287 41.38 205.839H35.38ZM70.4072 217.047C91.7529 219.176 120.827 220.314 149.218 220.383L149.232 214.383C120.953 214.314 92.0871 213.18 71.0028 211.076L70.4072 217.047ZM149.225 220.383C149.69 220.383 150.158 220.385 150.629 220.386C151.099 220.387 151.573 220.388 152.045 220.388V214.388C151.582 214.388 151.116 214.387 150.645 214.386C150.175 214.385 149.7 214.383 149.225 214.383V220.383ZM152.045 220.388C152.676 220.388 153.308 220.387 153.937 220.386C154.566 220.385 155.193 220.383 155.82 220.383V214.383C155.187 214.383 154.554 214.385 153.925 214.386C153.295 214.387 152.669 214.388 152.045 214.388V220.388ZM155.83 220.383C184.365 220.289 213.486 219.116 234.686 216.946L234.074 210.977C213.144 213.12 184.235 214.289 155.81 214.383L155.83 220.383ZM234.686 216.946C244.155 215.976 252.155 214.795 257.839 213.388C260.656 212.691 263.083 211.897 264.87 210.954C265.761 210.485 266.648 209.898 267.346 209.142C268.064 208.364 268.715 207.25 268.715 205.844H262.715C262.715 205.303 262.976 205.031 262.938 205.072C262.88 205.135 262.645 205.345 262.071 205.647C260.928 206.25 259.057 206.906 256.397 207.564C251.128 208.868 243.46 210.016 234.074 210.978L234.686 216.946ZM268.715 205.844C268.715 204.503 268.123 203.423 267.443 202.65C266.785 201.903 265.949 201.323 265.114 200.86C263.443 199.934 261.186 199.158 258.585 198.48C253.333 197.11 245.939 195.954 237.156 194.993L236.504 200.957C245.201 201.909 252.249 203.028 257.07 204.286C259.505 204.921 261.192 205.546 262.206 206.108C262.713 206.389 262.904 206.575 262.938 206.613C262.951 206.627 262.715 206.355 262.715 205.844H268.715ZM62.2263 113.312C84.4618 116.104 118.654 117.554 151.589 117.569L151.591 111.569C118.756 111.554 84.8482 110.105 62.9737 107.359L62.2263 113.312ZM151.59 117.569H153.455V111.569H151.59V117.569ZM153.459 117.569C186.557 117.529 220.803 116.034 242.804 113.196L242.036 107.245C220.407 110.035 186.453 111.529 153.451 111.569L153.459 117.569ZM242.804 113.196C249.99 112.269 256.004 111.181 260.278 109.911C262.392 109.282 264.267 108.555 265.675 107.674C266.925 106.892 268.715 105.408 268.715 103.024H262.715C262.715 102.111 263.378 102.033 262.492 102.588C261.763 103.044 260.492 103.587 258.567 104.16C254.763 105.291 249.13 106.33 242.036 107.245L242.804 113.196ZM268.715 103.024C268.715 101.667 268.109 100.579 267.42 99.8061C266.752 99.0569 265.904 98.4761 265.056 98.0125C263.36 97.0844 261.064 96.3052 258.414 95.6233C253.065 94.2469 245.534 93.0858 236.596 92.1226L235.954 98.088C244.806 99.0422 251.995 100.167 256.919 101.434C259.405 102.074 261.133 102.706 262.177 103.276C262.7 103.562 262.9 103.753 262.94 103.797C262.957 103.817 262.715 103.544 262.715 103.024H268.715ZM233.747 96.7204C234.032 97.1662 234.23 97.4619 234.434 97.804L239.586 94.7274C239.32 94.2826 239.008 93.8113 238.803 93.4901L233.747 96.7204ZM236.68 99.2475C249.744 100.693 256.396 102.194 259.71 103.331C261.381 103.904 262.005 104.319 262.158 104.442C262.288 104.546 261.67 104.092 261.67 103.024H267.67C267.67 101.635 266.876 100.538 265.921 99.769C264.989 99.0181 263.62 98.3283 261.657 97.6551C257.704 96.2994 250.526 94.7424 237.34 93.2839L236.68 99.2475ZM261.67 103.024C261.67 102.041 262.201 101.57 262.171 101.596C262.108 101.652 261.666 101.991 260.343 102.492C257.715 103.486 252.374 104.838 241.808 106.194L242.572 112.145C253.271 110.772 259.17 109.35 262.466 108.104C264.105 107.484 265.296 106.836 266.125 106.109C266.988 105.353 267.67 104.306 267.67 103.024H261.67ZM241.808 106.194C238.858 106.573 235.514 106.948 231.709 107.32L232.291 113.291C236.146 112.915 239.552 112.533 242.572 112.145L241.808 106.194ZM231.709 107.32C210.819 109.354 183.086 110.493 153.476 110.528L153.484 116.528C183.214 116.493 211.151 115.35 232.291 113.291L231.709 107.32ZM153.48 110.528C153.231 110.528 152.984 110.529 152.746 110.53C152.506 110.531 152.273 110.533 152.04 110.533V116.533C152.292 116.533 152.539 116.531 152.777 116.53C153.018 116.529 153.249 116.528 153.48 116.528V110.528ZM152.04 110.533H151.555V116.533H152.04V110.533ZM151.556 110.533C121.592 110.523 93.4849 109.379 72.3763 107.32L71.7937 113.291C93.1551 115.375 121.468 116.523 151.554 116.533L151.556 110.533ZM72.3727 107.319C69.3071 107.024 66.2457 106.686 63.1894 106.307L62.4506 112.262C65.5612 112.648 68.6771 112.991 71.7973 113.292L72.3727 107.319ZM63.1917 106.308C52.1872 104.934 46.6115 103.554 43.8581 102.533C42.4713 102.018 41.9949 101.664 41.9146 101.595C41.8635 101.551 42.415 102.019 42.415 103.024H36.415C36.415 104.333 37.1247 105.39 38.0026 106.145C38.8514 106.874 40.0749 107.529 41.7719 108.158C45.186 109.424 51.3128 110.871 62.4483 112.261L63.1917 106.308ZM42.415 103.024C42.415 104.111 41.777 104.562 41.9312 104.44C42.1033 104.304 42.7654 103.874 44.5059 103.288C47.9586 102.125 54.8691 100.597 68.4219 99.1338L67.7781 93.1685C54.1059 94.6441 46.6739 96.2262 42.5904 97.6018C40.5627 98.2849 39.1583 98.9821 38.2058 99.7365C37.2355 100.505 36.415 101.611 36.415 103.024H42.415ZM70.6669 97.7039C70.8835 97.3458 71.0892 97.0323 71.3675 96.5911L66.2925 93.3904C66.0808 93.7261 65.7865 94.1796 65.5331 94.5984L70.6669 97.7039ZM68.5169 92.0071C59.2926 92.9752 51.5091 94.148 45.9801 95.5411C43.2402 96.2315 40.8741 97.0191 39.1293 97.9546C38.2585 98.4214 37.3891 99.005 36.7052 99.7577C36.0007 100.533 35.37 101.635 35.37 103.019H41.37C41.37 103.551 41.1173 103.824 41.1459 103.793C41.1952 103.738 41.4142 103.537 41.9643 103.243C43.0612 102.654 44.8667 102.009 47.4461 101.359C52.5559 100.072 60.0024 98.9337 69.1431 97.9743L68.5169 92.0071ZM35.37 103.024C35.374 105.454 37.2316 106.948 38.5091 107.729C39.9611 108.617 41.8997 109.352 44.0948 109.99C48.5304 111.277 54.7737 112.377 62.2267 113.312L62.9733 107.359C55.6113 106.435 49.7421 105.381 45.7677 104.228C43.7578 103.644 42.417 103.086 41.6403 102.611C40.689 102.029 41.3685 102.089 41.37 103.014L35.37 103.024Z" fill="white" mask="url(#path-36-inside-1_1026_549)"/>
<defs>
<radialGradient id="paint0_radial_1026_549" cx="0" cy="0" r="1" gradientUnits="userSpaceOnUse" gradientTransform="translate(92.978 166.516) scale(3.5705 3.55648)">
<stop stop-color="#26326A"/>
<stop offset="0.14" stop-color="#263168"/>
<stop offset="0.321" stop-color="#252E61"/>
<stop offset="0.523" stop-color="#222956"/>
<stop offset="0.742" stop-color="#1E2246"/>
<stop offset="0.971" stop-color="#171832"/>
<stop offset="1" stop-color="#15162E"/>
</radialGradient>
<radialGradient id="paint1_radial_1026_549" cx="0" cy="0" r="1" gradientUnits="userSpaceOnUse" gradientTransform="translate(184.099 196.421) scale(3.5705 3.55648)">
<stop stop-color="#26326A"/>
<stop offset="0.14" stop-color="#263168"/>
<stop offset="0.321" stop-color="#252E61"/>
<stop offset="0.523" stop-color="#222956"/>
<stop offset="0.742" stop-color="#1E2246"/>
<stop offset="0.971" stop-color="#171832"/>
<stop offset="1" stop-color="#15162E"/>
</radialGradient>
<radialGradient id="paint2_radial_1026_549" cx="0" cy="0" r="1" gradientUnits="userSpaceOnUse" gradientTransform="translate(215.154 128.741) scale(3.5705 3.55649)">
<stop stop-color="#26326A"/>
<stop offset="0.14" stop-color="#263168"/>
<stop offset="0.321" stop-color="#252E61"/>
<stop offset="0.523" stop-color="#222956"/>
<stop offset="0.742" stop-color="#1E2246"/>
<stop offset="0.971" stop-color="#171832"/>
<stop offset="1" stop-color="#15162E"/>
</radialGradient>
<radialGradient id="paint3_radial_1026_549" cx="0" cy="0" r="1" gradientUnits="userSpaceOnUse" gradientTransform="translate(170.964 87.7622) scale(3.5705 3.55648)">
<stop stop-color="#26326A"/>
<stop offset="0.14" stop-color="#263168"/>
<stop offset="0.321" stop-color="#252E61"/>
<stop offset="0.523" stop-color="#222956"/>
<stop offset="0.742" stop-color="#1E2246"/>
<stop offset="0.971" stop-color="#171832"/>
<stop offset="1" stop-color="#15162E"/>
</radialGradient>
<radialGradient id="paint4_radial_1026_549" cx="0" cy="0" r="1" gradientUnits="userSpaceOnUse" gradientTransform="translate(102.639 116.444) scale(3.5705 3.55648)">
<stop stop-color="#26326A"/>
<stop offset="0.14" stop-color="#263168"/>
<stop offset="0.321" stop-color="#252E61"/>
<stop offset="0.523" stop-color="#222956"/>
<stop offset="0.742" stop-color="#1E2246"/>
<stop offset="0.971" stop-color="#171832"/>
<stop offset="1" stop-color="#15162E"/>
</radialGradient>
<radialGradient id="paint5_radial_1026_549" cx="0" cy="0" r="1" gradientUnits="userSpaceOnUse" gradientTransform="translate(133.895 233.707) scale(3.5705 3.55648)">
<stop stop-color="#26326A"/>
<stop offset="0.14" stop-color="#263168"/>
<stop offset="0.321" stop-color="#252E61"/>
<stop offset="0.523" stop-color="#222956"/>
<stop offset="0.742" stop-color="#1E2246"/>
<stop offset="0.971" stop-color="#171832"/>
<stop offset="1" stop-color="#15162E"/>
</radialGradient>
<radialGradient id="paint6_radial_1026_549" cx="0" cy="0" r="1" gradientUnits="userSpaceOnUse" gradientTransform="translate(85.1885 205.849) scale(3.5705 3.55648)">
<stop stop-color="#26326A"/>
<stop offset="0.14" stop-color="#263168"/>
<stop offset="0.321" stop-color="#252E61"/>
<stop offset="0.523" stop-color="#222956"/>
<stop offset="0.742" stop-color="#1E2246"/>
<stop offset="0.971" stop-color="#171832"/>
<stop offset="1" stop-color="#15162E"/>
</radialGradient>
<radialGradient id="paint7_radial_1026_549" cx="0" cy="0" r="1" gradientUnits="userSpaceOnUse" gradientTransform="translate(212.116 202.046) scale(3.5705 3.55648)">
<stop stop-color="#26326A"/>
<stop offset="0.14" stop-color="#263168"/>
<stop offset="0.321" stop-color="#252E61"/>
<stop offset="0.523" stop-color="#222956"/>
<stop offset="0.742" stop-color="#1E2246"/>
<stop offset="0.971" stop-color="#171832"/>
<stop offset="1" stop-color="#15162E"/>
</radialGradient>
<radialGradient id="paint8_radial_1026_549" cx="0" cy="0" r="1" gradientUnits="userSpaceOnUse" gradientTransform="translate(166.741 123.059) scale(3.5705 3.55648)">
<stop stop-color="#26326A"/>
<stop offset="0.14" stop-color="#263168"/>
<stop offset="0.321" stop-color="#252E61"/>
<stop offset="0.523" stop-color="#222956"/>
<stop offset="0.742" stop-color="#1E2246"/>
<stop offset="0.971" stop-color="#171832"/>
<stop offset="1" stop-color="#15162E"/>
</radialGradient>
<radialGradient id="paint9_radial_1026_549" cx="0" cy="0" r="1" gradientUnits="userSpaceOnUse" gradientTransform="translate(133.895 182.474) scale(3.5705 3.55648)">
<stop stop-color="#26326A"/>
<stop offset="0.14" stop-color="#263168"/>
<stop offset="0.321" stop-color="#252E61"/>
<stop offset="0.523" stop-color="#222956"/>
<stop offset="0.742" stop-color="#1E2246"/>
<stop offset="0.971" stop-color="#171832"/>
<stop offset="1" stop-color="#15162E"/>
</radialGradient>
<radialGradient id="paint10_radial_1026_549" cx="0" cy="0" r="1" gradientUnits="userSpaceOnUse" gradientTransform="translate(226.092 166.516) scale(3.5705 3.55648)">
<stop stop-color="#26326A"/>
<stop offset="0.14" stop-color="#263168"/>
<stop offset="0.321" stop-color="#252E61"/>
<stop offset="0.523" stop-color="#222956"/>
<stop offset="0.742" stop-color="#1E2246"/>
<stop offset="0.971" stop-color="#171832"/>
<stop offset="1" stop-color="#15162E"/>
</radialGradient>
</defs>
</svg>
