<svg width="307" height="219" viewBox="0 0 307 219" fill="none" xmlns="http://www.w3.org/2000/svg">
<path d="M282.828 40.3735H18.3688C16.4382 40.3735 14.5868 41.1399 13.2217 42.5041C11.8566 43.8683 11.0897 45.7186 11.0897 47.6478V194.904C11.0897 196.833 11.8566 198.683 13.2217 200.047C14.5868 201.412 16.4382 202.178 18.3688 202.178H282.828C284.759 202.178 286.61 201.412 287.975 200.047C289.34 198.683 290.107 196.833 290.107 194.904V47.6478C290.107 45.7186 289.34 43.8683 287.975 42.5041C286.61 41.1399 284.759 40.3735 282.828 40.3735Z" fill="#3F3D56"/>
<path d="M280.348 53.2292H20.8486V199.518H280.348V53.2292Z" fill="white"/>
<path d="M150.377 49.2395C151.847 49.2395 153.038 48.0487 153.038 46.5797C153.038 45.1108 151.847 43.9199 150.377 43.9199C148.907 43.9199 147.715 45.1108 147.715 46.5797C147.715 48.0487 148.907 49.2395 150.377 49.2395Z" fill="white"/>
<path d="M206.135 199.518H20.8488V53.2292L206.135 199.518Z" fill="#F2F2F2"/>
<path d="M297.393 196.858H272.068V195.035C272.068 194.939 272.03 194.847 271.962 194.779C271.894 194.711 271.802 194.673 271.706 194.673H263.023C262.975 194.673 262.928 194.683 262.884 194.701C262.84 194.719 262.801 194.746 262.767 194.779C262.733 194.813 262.707 194.853 262.689 194.896C262.67 194.94 262.661 194.987 262.661 195.035V196.858H257.234V195.035C257.234 194.987 257.225 194.94 257.207 194.897C257.189 194.853 257.162 194.813 257.128 194.779C257.095 194.746 257.055 194.719 257.011 194.701C256.967 194.683 256.92 194.673 256.872 194.673H248.189C248.142 194.673 248.095 194.683 248.051 194.701C248.007 194.719 247.967 194.746 247.934 194.779C247.9 194.813 247.873 194.853 247.855 194.897C247.837 194.94 247.828 194.987 247.828 195.035V196.858H242.401V195.035C242.401 194.987 242.391 194.94 242.373 194.897C242.355 194.853 242.328 194.813 242.295 194.779C242.261 194.746 242.221 194.719 242.177 194.701C242.134 194.683 242.087 194.673 242.039 194.673H233.356C233.308 194.673 233.261 194.683 233.217 194.701C233.174 194.719 233.134 194.746 233.1 194.779C233.067 194.813 233.04 194.853 233.022 194.897C233.003 194.94 232.994 194.987 232.994 195.035V196.858H227.567V195.035C227.567 194.987 227.558 194.94 227.54 194.897C227.522 194.853 227.495 194.813 227.461 194.779C227.428 194.746 227.388 194.719 227.344 194.701C227.3 194.683 227.253 194.673 227.206 194.673H218.522C218.475 194.673 218.428 194.683 218.384 194.701C218.34 194.719 218.3 194.746 218.267 194.779C218.233 194.813 218.206 194.853 218.188 194.896C218.17 194.94 218.161 194.987 218.161 195.035V196.858H212.734V195.035C212.734 194.987 212.724 194.94 212.706 194.897C212.688 194.853 212.661 194.813 212.628 194.779C212.594 194.746 212.554 194.719 212.51 194.701C212.467 194.683 212.42 194.673 212.372 194.673H203.689C203.641 194.673 203.594 194.683 203.551 194.701C203.507 194.719 203.467 194.746 203.433 194.779C203.4 194.813 203.373 194.853 203.355 194.897C203.337 194.94 203.327 194.987 203.327 195.035V196.858H197.9V195.035C197.9 194.987 197.891 194.94 197.873 194.897C197.855 194.853 197.828 194.813 197.794 194.779C197.761 194.746 197.721 194.719 197.677 194.701C197.633 194.683 197.586 194.673 197.539 194.673H188.856C188.808 194.673 188.761 194.683 188.717 194.701C188.673 194.719 188.633 194.746 188.6 194.779C188.566 194.813 188.539 194.853 188.521 194.897C188.503 194.94 188.494 194.987 188.494 195.035V196.858H183.067V195.035C183.067 194.987 183.058 194.94 183.039 194.897C183.021 194.853 182.995 194.813 182.961 194.779C182.927 194.746 182.887 194.719 182.844 194.701C182.8 194.683 182.753 194.673 182.705 194.673H114.688C114.641 194.673 114.594 194.683 114.55 194.701C114.506 194.719 114.466 194.746 114.432 194.779C114.399 194.813 114.372 194.853 114.354 194.897C114.336 194.94 114.326 194.987 114.326 195.035V196.858H108.899V195.035C108.899 194.987 108.89 194.94 108.872 194.897C108.854 194.853 108.827 194.813 108.793 194.779C108.76 194.746 108.72 194.719 108.676 194.701C108.632 194.683 108.585 194.673 108.538 194.673H99.8547C99.8072 194.673 99.7601 194.683 99.7162 194.701C99.6723 194.719 99.6324 194.746 99.5988 194.779C99.5652 194.813 99.5386 194.853 99.5204 194.897C99.5022 194.94 99.4929 194.987 99.4929 195.035V196.858H94.066V195.035C94.066 194.987 94.0566 194.94 94.0384 194.897C94.0203 194.853 93.9936 194.813 93.96 194.779C93.9264 194.746 93.8865 194.719 93.8427 194.701C93.7988 194.683 93.7517 194.673 93.7042 194.673H85.0212C84.9737 194.673 84.9266 194.683 84.8827 194.701C84.8388 194.719 84.7989 194.746 84.7653 194.779C84.7317 194.813 84.7051 194.853 84.6869 194.897C84.6687 194.94 84.6594 194.987 84.6594 195.035V196.858H79.2325V195.035C79.2325 194.987 79.2231 194.94 79.2049 194.897C79.1868 194.853 79.1601 194.813 79.1265 194.779C79.0929 194.746 79.053 194.719 79.0091 194.701C78.9652 194.683 78.9182 194.673 78.8707 194.673H70.1877C70.1402 194.673 70.0931 194.683 70.0492 194.701C70.0053 194.719 69.9654 194.746 69.9318 194.779C69.8982 194.813 69.8716 194.853 69.8534 194.897C69.8352 194.94 69.8259 194.987 69.8259 195.035V196.858H64.399V195.035C64.399 194.987 64.3897 194.94 64.3715 194.897C64.3533 194.853 64.3267 194.813 64.2931 194.779C64.2595 194.746 64.2196 194.719 64.1757 194.701C64.1318 194.683 64.0847 194.673 64.0372 194.673H55.3542C55.3067 194.673 55.2596 194.683 55.2157 194.701C55.1718 194.719 55.132 194.746 55.0984 194.779C55.0648 194.813 55.0381 194.853 55.02 194.897C55.0018 194.94 54.9924 194.987 54.9924 195.035V196.858H49.5655V195.035C49.5655 194.987 49.5562 194.94 49.538 194.897C49.5198 194.853 49.4932 194.813 49.4596 194.779C49.426 194.746 49.3861 194.719 49.3422 194.701C49.2983 194.683 49.2512 194.673 49.2037 194.673H40.5207C40.4248 194.673 40.3327 194.711 40.2649 194.779C40.197 194.847 40.1589 194.939 40.1589 195.035V196.858H34.7321V195.035C34.7321 194.987 34.7227 194.94 34.7045 194.897C34.6864 194.853 34.6597 194.813 34.6261 194.779C34.5925 194.746 34.5526 194.719 34.5087 194.701C34.4649 194.683 34.4178 194.673 34.3703 194.673H25.6872C25.5913 194.673 25.4993 194.711 25.4314 194.779C25.3636 194.847 25.3254 194.939 25.3254 195.035V196.858H8.683C7.54273 196.858 6.41362 197.083 5.36015 197.519C4.30668 197.955 3.34948 198.594 2.54319 199.4C1.7369 200.206 1.09731 201.162 0.660946 202.215C0.224585 203.268 -6.92377e-07 204.396 0 205.536V209.459C2.79664e-06 211.761 0.914811 213.968 2.54319 215.595C4.17157 217.223 6.38013 218.137 8.683 218.137H297.393C299.696 218.137 301.905 217.223 303.533 215.595C305.161 213.968 306.076 211.761 306.076 209.459V205.536C306.076 204.396 305.852 203.268 305.415 202.215C304.979 201.162 304.339 200.206 303.533 199.4C302.727 198.594 301.769 197.955 300.716 197.519C299.663 197.083 298.533 196.858 297.393 196.858Z" fill="#3F3D56"/>
<path d="M155.59 180.336C155.503 180.542 155.406 180.743 155.298 180.938C154.732 181.983 153.932 182.882 152.961 183.566C151.811 184.375 150.46 184.853 149.057 184.947C147.654 185.041 146.252 184.749 145.004 184.102C143.756 183.454 142.709 182.476 141.979 181.275C141.249 180.074 140.863 178.696 140.863 177.29V176.052H141.914C146 178.692 150.727 180.172 155.59 180.336Z" fill="#3F3D56"/>
<path d="M170.597 176.415V177.291C170.598 178.996 170.03 180.653 168.983 181.999C167.937 183.346 166.471 184.306 164.817 184.727C163.164 185.148 161.417 185.007 159.853 184.325C158.289 183.644 156.997 182.461 156.18 180.963C156.068 180.763 155.966 180.557 155.876 180.345C156.101 180.352 156.322 180.355 156.547 180.355C161.504 180.36 166.367 178.997 170.597 176.415Z" fill="#3F3D56"/>
<path d="M180.942 83.7931C180.712 83.7593 180.478 83.7378 180.244 83.7224C182.9 89.839 183.084 96.7455 180.758 102.995C180.991 102.967 181.222 102.93 181.453 102.887C183.705 102.451 185.729 101.23 187.165 99.4426C188.601 97.6547 189.356 95.4156 189.294 93.1239C189.233 90.8322 188.36 88.6365 186.831 86.9279C185.301 85.2192 183.214 84.1083 180.942 83.7931Z" fill="#3F3D56"/>
<path d="M132.849 83.7224C132.615 83.7378 132.381 83.7593 132.151 83.7931C129.878 84.1084 127.792 85.2192 126.262 86.9279C124.733 88.6366 123.86 90.8322 123.799 93.1239C123.737 95.4156 124.492 97.6547 125.928 99.4426C127.364 101.23 129.388 102.451 131.64 102.887C131.871 102.93 132.101 102.967 132.335 102.995C130.009 96.7454 130.193 89.8391 132.849 83.7224Z" fill="#3F3D56"/>
<path d="M180.942 83.7934C178.409 77.7458 173.716 72.8552 167.777 70.0718C161.837 67.2883 155.074 66.8107 148.801 68.7317C142.529 70.6527 137.195 74.8353 133.835 80.4667C130.476 86.0982 129.331 92.7764 130.624 99.2042C131.916 105.632 135.553 111.35 140.828 115.248C146.103 119.146 152.64 120.945 159.168 120.296C165.696 119.646 171.75 116.595 176.153 111.735C180.556 106.875 182.994 100.553 182.994 93.9966C182.992 90.4934 182.295 87.0253 180.942 83.7934ZM180.758 102.995C178.508 109.038 174.077 114.021 168.336 116.962C162.595 119.904 155.96 120.591 149.737 118.89C143.514 117.188 138.153 113.22 134.711 107.767C131.269 102.314 129.993 95.7702 131.136 89.4246C132.279 83.079 135.757 77.3908 140.886 73.4794C146.015 69.568 152.424 67.7168 158.85 68.2902C165.276 68.8635 171.255 71.8199 175.609 76.5774C179.964 81.3349 182.379 87.549 182.378 93.9966C182.377 97.0685 181.829 100.116 180.758 102.995Z" fill="#3F3D56"/>
<path d="M170.077 88.0037H143.015C141.588 88.0037 140.219 88.5703 139.21 89.5789C138.201 90.5875 137.634 91.9555 137.634 93.3818C137.634 94.8082 138.201 96.1762 139.21 97.1848C140.219 98.1934 141.588 98.76 143.015 98.76H170.077C171.505 98.76 172.874 98.1934 173.883 97.1848C174.892 96.1762 175.459 94.8082 175.459 93.3818C175.459 91.9555 174.892 90.5875 173.883 89.5789C172.874 88.5703 171.505 88.0037 170.077 88.0037Z" fill="#3F3D56"/>
<path d="M180.758 139.923C180.659 139.742 180.558 139.563 180.453 139.388C180.45 139.382 180.447 139.379 180.444 139.373C178.024 135.233 174.569 131.794 170.418 129.392C166.266 126.99 161.561 125.708 156.764 125.672C151.967 125.636 147.243 126.847 143.056 129.186C138.869 131.525 135.362 134.912 132.88 139.014C130.398 143.117 129.026 147.794 128.899 152.586C128.772 157.378 129.894 162.121 132.155 166.35C134.416 170.578 137.738 174.146 141.795 176.703C145.852 179.261 150.506 180.72 155.298 180.938C155.59 180.954 155.885 180.963 156.18 180.963C156.303 180.969 156.423 180.969 156.546 180.969C161.49 180.976 166.344 179.65 170.597 177.131C175.216 174.399 178.947 170.391 181.342 165.591C181.345 165.585 181.348 165.581 181.351 165.575C181.443 165.391 181.533 165.203 181.622 165.013C183.471 161.06 184.357 156.725 184.207 152.364C184.057 148.003 182.875 143.739 180.758 139.923ZM181.022 164.844C180.933 165.034 180.841 165.222 180.745 165.406C178.458 169.951 174.942 173.764 170.597 176.415C166.366 178.997 161.504 180.36 156.546 180.355C156.322 180.355 156.1 180.351 155.876 180.345C155.78 180.345 155.685 180.342 155.59 180.336C150.894 180.172 146.323 178.789 142.324 176.324C138.326 173.858 135.039 170.395 132.786 166.274C130.534 162.154 129.394 157.518 129.478 152.824C129.562 148.129 130.868 143.538 133.267 139.501C135.666 135.464 139.075 132.12 143.16 129.8C147.244 127.479 151.862 126.261 156.561 126.265C161.259 126.27 165.875 127.497 169.955 129.825C174.035 132.153 177.438 135.503 179.829 139.545C179.832 139.551 179.835 139.554 179.838 139.56C179.946 139.735 180.05 139.914 180.149 140.092C182.259 143.849 183.44 148.056 183.592 152.362C183.744 156.668 182.863 160.948 181.022 164.844Z" fill="#3F3D56"/>
<path d="M177.818 140.741C177.279 140.357 176.634 140.15 175.973 140.147H163.878C163.035 140.147 162.227 140.482 161.631 141.077C161.036 141.673 160.701 142.48 160.701 143.322C160.701 144.164 161.036 144.972 161.631 145.567C162.227 146.162 163.035 146.497 163.878 146.497H175.973C176.189 146.497 176.404 146.476 176.615 146.432C176.826 146.387 177.032 146.322 177.23 146.239C177.748 146.016 178.196 145.66 178.53 145.207C178.864 144.754 179.072 144.221 179.132 143.661C179.191 143.102 179.101 142.536 178.87 142.023C178.639 141.51 178.276 141.067 177.818 140.741Z" fill="#3F3D56"/>
<path d="M164.683 144.934C165.574 144.934 166.296 144.212 166.296 143.322C166.296 142.432 165.574 141.71 164.683 141.71C163.792 141.71 163.07 142.432 163.07 143.322C163.07 144.212 163.792 144.934 164.683 144.934Z" fill="#F1F1F1"/>
<path d="M169.925 144.934C170.816 144.934 171.538 144.212 171.538 143.322C171.538 142.432 170.816 141.71 169.925 141.71C169.034 141.71 168.312 142.432 168.312 143.322C168.312 144.212 169.034 144.934 169.925 144.934Z" fill="#F1F1F1"/>
<path d="M175.166 144.934C176.057 144.934 176.779 144.212 176.779 143.322C176.779 142.432 176.057 141.71 175.166 141.71C174.276 141.71 173.553 142.432 173.553 143.322C173.553 144.212 174.276 144.934 175.166 144.934Z" fill="#37474F"/>
<path d="M235.91 90.2016C231.715 92.7153 224.243 95.8651 216.607 92.6281L211.671 90.5357L221.562 79.4544C213.669 70.7567 209.302 59.4316 209.314 47.6895C209.326 35.9475 213.716 24.6314 221.627 15.9499C229.539 7.26837 240.403 1.84464 252.101 0.737345C263.798 -0.36995 275.488 2.91866 284.89 9.96127C294.292 17.0039 300.73 27.295 302.948 38.826C305.166 50.3569 303.005 62.3 296.886 72.3241C290.767 82.3482 281.129 89.7338 269.855 93.0394C258.58 96.345 246.478 95.3332 235.91 90.2016Z" fill="white"/>
<path d="M235.935 90.7989C231.905 93.1635 224.228 96.4314 216.401 93.1131L210.787 90.7336L220.855 79.4558C214.591 72.4145 210.552 63.6784 209.246 54.3477C207.941 45.0169 209.428 35.5088 213.519 27.0208C217.61 18.5327 224.124 11.4443 232.238 6.64829C240.353 1.85223 249.706 -0.437 259.12 0.0688848C268.534 0.57477 277.588 3.85315 285.141 9.49116C292.695 15.1292 298.41 22.8747 301.567 31.7522C304.723 40.6298 305.181 50.2424 302.882 59.3794C300.583 68.5165 295.63 76.7694 288.647 83.0988C281.634 89.4939 272.865 93.6447 263.471 95.0171C254.077 96.3894 244.487 94.9203 235.935 90.7989ZM291.158 16.3753C287.037 11.8324 282.061 8.14528 276.514 5.52446C270.968 2.90364 264.958 1.40051 258.83 1.1009C252.702 0.801298 246.574 1.7111 240.798 3.77833C235.022 5.84557 229.709 9.02974 225.164 13.149C220.62 17.2683 216.931 22.2419 214.31 27.7859C211.689 33.3298 210.186 39.3355 209.888 45.4599C209.59 51.5843 210.502 57.7074 212.572 63.4795C214.642 69.2516 217.83 74.5597 221.953 79.1005L222.271 79.4517L212.554 90.3379L216.812 92.1432C224.372 95.3478 231.852 92.0189 235.638 89.7498L235.883 89.6029L236.14 89.7277C245.9 94.4669 257.006 95.6628 267.552 93.11C278.099 90.5572 287.427 84.4151 293.935 75.738C300.443 67.061 303.726 56.3904 303.219 45.5581C302.712 34.7259 298.448 24.4078 291.158 16.3753Z" fill="#37474F"/>
<path opacity="0.1" d="M296.438 47.4436C296.437 36.5861 292.368 26.1222 285.033 18.1128C277.698 10.1033 267.628 5.12873 256.806 4.16864C258.072 4.05778 259.353 3.9978 260.648 3.9978C272.174 4.00475 283.225 8.58512 291.372 16.732C299.52 24.8789 304.096 35.9256 304.096 47.4436C304.096 58.9616 299.52 70.0082 291.372 78.1551C283.225 86.302 272.174 90.8824 260.648 90.8893C259.355 90.8893 258.076 90.8286 256.812 90.718C267.633 89.7564 277.701 84.7813 285.035 76.7721C292.369 68.7629 296.437 58.3 296.438 47.4436Z" fill="black"/>
<path d="M262.69 38.7798H231.625V41.6627H262.69V38.7798Z" fill="#37474F"/>
<path d="M285.769 48.7529H231.625V51.6358H285.769V48.7529Z" fill="#37474F"/>
<path d="M285.716 58.7258H231.625V61.6087H285.716V58.7258Z" fill="#37474F"/>
</svg>
