<svg width="301" height="56" viewBox="0 0 301 56" fill="none" xmlns="http://www.w3.org/2000/svg">
<path d="M2.367 44V21.266H9.797L9.844 24.172H9.938C10.516 23.141 11.414 22.312 12.633 21.687C13.867 21.047 15.328 20.727 17.016 20.727C19.359 20.727 21.258 21.383 22.711 22.695C24.164 23.992 24.891 26.195 24.891 29.305V44H17.273V30.125C17.273 28.797 16.984 27.852 16.406 27.289C15.844 26.727 15.046 26.445 14.016 26.445C13.125 26.445 12.32 26.703 11.602 27.219C10.898 27.734 10.359 28.429 9.984 29.305V44H2.367ZM28.266 32.96V32.21C28.266 28.68 29.375 25.86 31.594 23.75C33.812 21.64 36.742 20.586 40.383 20.586C43.977 20.586 46.766 21.594 48.75 23.609C50.734 25.625 51.727 28.391 51.727 31.906V34.156H32.672V30.078H44.32V29.797C44.32 28.687 43.984 27.766 43.312 27.031C42.641 26.281 41.648 25.906 40.336 25.906C38.867 25.906 37.75 26.438 36.984 27.5C36.219 28.563 35.836 29.906 35.836 31.531V33.125C35.836 35.047 36.25 36.547 37.078 37.625C37.906 38.703 39.102 39.242 40.664 39.242C41.804 39.242 42.766 38.992 43.547 38.492C44.2988 38.0065 44.9315 37.3577 45.398 36.594L51.468 38.844C50.734 40.609 49.477 42.016 47.695 43.062C45.93 44.094 43.617 44.609 40.758 44.609C36.82 44.609 33.75 43.562 31.547 41.469C29.359 39.375 28.266 36.538 28.266 32.96ZM54.938 35.82V21.266H62.578V35.164C62.578 36.554 62.868 37.531 63.445 38.094C64.023 38.641 64.82 38.914 65.835 38.914C66.742 38.914 67.539 38.641 68.227 38.094C68.9277 37.55 69.4832 36.8414 69.844 36.031V21.266H77.484V44H70.054L69.961 41.07H69.914C69.274 42.117 68.344 42.96 67.125 43.602C65.906 44.227 64.453 44.539 62.765 44.539C60.437 44.539 58.547 43.867 57.094 42.523C55.656 41.164 54.938 38.93 54.938 35.82ZM82.195 44V21.266H89.742L89.812 24.148H89.859C90.4307 23.1862 91.2071 22.3621 92.133 21.734C93.07 21.094 94.141 20.774 95.343 20.774C95.766 20.774 96.164 20.812 96.539 20.891C96.929 20.953 97.203 21.016 97.359 21.078V26.984C97.0312 26.8806 96.6938 26.8103 96.352 26.774C95.941 26.7086 95.5252 26.6772 95.109 26.68C94.063 26.68 93.07 27 92.133 27.64C91.1972 28.2786 90.4455 29.1517 89.953 30.172V44H82.195ZM98.531 32.96V32.21C98.531 28.695 99.671 25.883 101.953 23.773C104.234 21.648 107.25 20.586 111 20.586C114.75 20.586 117.758 21.648 120.023 23.773C122.305 25.883 123.445 28.695 123.445 32.211V32.961C123.445 36.492 122.305 39.321 120.023 41.445C117.758 43.555 114.75 44.609 111 44.609C107.25 44.609 104.234 43.555 101.953 41.445C99.672 39.32 98.531 36.491 98.531 32.96ZM106.266 31.906V33.266C106.266 35.094 106.664 36.531 107.461 37.578C108.273 38.625 109.445 39.148 110.977 39.148C112.523 39.148 113.695 38.625 114.492 37.578C115.305 36.531 115.711 35.086 115.711 33.242V31.906C115.711 30.094 115.305 28.672 114.492 27.641C113.68 26.609 112.508 26.094 110.977 26.094C109.461 26.094 108.297 26.609 107.484 27.641C106.672 28.671 106.266 30.094 106.266 31.906ZM126.07 36.688L133.008 36.758V37.203C133.008 38.266 133.359 39.016 134.062 39.453C134.766 39.891 135.711 40.109 136.898 40.109C138.07 40.109 138.938 39.922 139.5 39.547C140.062 39.157 140.344 38.594 140.344 37.859C140.344 37.156 139.992 36.617 139.289 36.242C138.586 35.867 137.133 35.469 134.93 35.047C132.039 34.484 129.938 33.617 128.625 32.445C127.312 31.273 126.656 29.695 126.656 27.711C126.656 25.43 127.578 23.671 129.422 22.438C131.266 21.203 133.805 20.586 137.039 20.586C140.242 20.586 142.766 21.226 144.609 22.508C146.469 23.789 147.391 25.594 147.375 27.922V28.32H140.438V27.875C140.438 26.969 140.141 26.305 139.547 25.883C138.953 25.445 138.07 25.227 136.898 25.227C135.852 25.227 135.086 25.398 134.602 25.742C134.117 26.07 133.875 26.555 133.875 27.195C133.875 27.789 134.227 28.273 134.93 28.648C135.648 29.008 137.117 29.398 139.336 29.82C142.336 30.367 144.516 31.203 145.875 32.328C147.234 33.438 147.914 34.977 147.914 36.945C147.914 39.445 146.984 41.352 145.125 42.665C143.281 43.961 140.586 44.609 137.039 44.609C133.57 44.609 130.883 43.961 128.977 42.664C127.086 41.352 126.117 39.484 126.07 37.062V36.688ZM150.516 32.961V32.211C150.516 28.695 151.656 25.883 153.938 23.773C156.219 21.648 159.234 20.586 162.984 20.586C166.734 20.586 169.742 21.648 172.008 23.773C174.289 25.883 175.43 28.695 175.43 32.211V32.961C175.43 36.492 174.289 39.321 172.008 41.445C169.742 43.555 166.734 44.609 162.984 44.609C159.234 44.609 156.219 43.555 153.938 41.445C151.656 39.32 150.516 36.492 150.516 32.961ZM158.25 31.906V33.266C158.25 35.094 158.648 36.531 159.445 37.578C160.258 38.625 161.43 39.148 162.961 39.148C164.508 39.148 165.68 38.625 166.477 37.578C167.289 36.531 167.695 35.086 167.695 33.242V31.906C167.695 30.094 167.289 28.672 166.477 27.641C165.664 26.609 164.492 26.094 162.961 26.094C161.445 26.094 160.281 26.609 159.469 27.641C158.656 28.671 158.25 30.094 158.25 31.906ZM180.258 44V18.148C180.258 15.023 181.172 12.664 183 11.07C184.828 9.47699 187.258 8.67999 190.289 8.67999C190.93 8.67999 191.523 8.71899 192.07 8.79699C192.633 8.85899 193.188 8.95299 193.734 9.07799L193.453 14.633C193.135 14.5668 192.814 14.5121 192.492 14.469C192.127 14.4198 191.759 14.3964 191.391 14.399C190.219 14.399 189.32 14.766 188.695 15.5C188.07 16.219 187.758 17.375 187.758 18.969V22.859L187.828 23.211V44H180.258ZM176.906 26.773V21.266H192.141V26.773H176.906ZM192.539 26.773V21.266H208.195V26.773H192.539ZM196.031 37.016V22.906L196.172 22.484V14.61H203.531V35.68C203.531 37.087 203.734 38.009 204.141 38.446C204.547 38.868 205.164 39.079 205.992 39.079C206.383 39.079 206.758 39.048 207.117 38.985C207.487 38.9243 207.848 38.8223 208.195 38.681V43.907C207.773 44.064 207.148 44.212 206.32 44.353C205.508 44.493 204.523 44.563 203.367 44.563C201.055 44.563 199.25 43.97 197.953 42.783C196.672 41.579 196.031 39.656 196.031 37.016Z" fill="#37474F"/>
<path d="M211.641 40.25C211.641 39.078 212.023 38.086 212.789 37.273C213.555 36.461 214.656 36.055 216.094 36.055C217.531 36.055 218.633 36.461 219.398 37.273C220.164 38.086 220.547 39.086 220.547 40.273C220.547 41.445 220.164 42.437 219.398 43.25C218.633 44.063 217.531 44.469 216.094 44.469C214.656 44.469 213.555 44.062 212.789 43.25C212.023 42.422 211.641 41.422 211.641 40.25ZM224.438 33.008V32.258C224.438 28.898 225.336 26.148 227.133 24.008C228.93 21.868 231.281 20.797 234.188 20.797C235.812 20.797 237.195 21.07 238.336 21.617C239.477 22.148 240.367 22.859 241.008 23.75V9.172H248.508V44H241.195L241.125 41H241.078C240.484 41.969 239.586 42.79 238.383 43.46C237.195 44.133 235.797 44.469 234.188 44.469C231.172 44.469 228.789 43.399 227.039 41.258C225.305 39.102 224.438 36.352 224.438 33.008ZM232.148 33.078C232.148 34.859 232.516 36.312 233.25 37.438C234 38.562 235.141 39.125 236.672 39.125C237.703 39.125 238.578 38.835 239.297 38.258C240.031 37.664 240.562 36.977 240.891 36.195V28.977C240.578 28.211 240.062 27.555 239.344 27.007C238.625 26.445 237.734 26.164 236.672 26.164C235.156 26.164 234.023 26.727 233.273 27.852C232.523 28.977 232.148 30.43 232.148 32.211V33.078ZM252.047 32.961V32.211C252.047 28.68 253.156 25.859 255.375 23.75C257.594 21.64 260.523 20.586 264.164 20.586C267.758 20.586 270.547 21.594 272.531 23.609C274.516 25.625 275.508 28.391 275.508 31.906V34.156H256.453V30.078H268.102V29.797C268.102 28.687 267.766 27.766 267.094 27.031C266.422 26.281 265.43 25.906 264.117 25.906C262.648 25.906 261.531 26.438 260.766 27.5C260 28.563 259.617 29.906 259.617 31.531V33.125C259.617 35.047 260.031 36.547 260.859 37.625C261.688 38.703 262.883 39.242 264.445 39.242C265.586 39.242 266.547 38.992 267.328 38.492C268.08 38.0065 268.713 37.3578 269.18 36.594L275.25 38.844C274.516 40.609 273.258 42.016 271.477 43.062C269.711 44.094 267.398 44.609 264.539 44.609C260.602 44.609 257.531 43.562 255.328 41.469C253.141 39.375 252.047 36.539 252.047 32.961ZM276.023 21.266H283.523L287.953 33.946C288.109 34.398 288.242 34.836 288.352 35.258C288.477 35.68 288.57 36.047 288.633 36.359H288.75C288.812 36.047 288.898 35.679 289.008 35.258C289.133 34.836 289.266 34.398 289.406 33.945L293.93 21.265H300.797L292.055 44H284.836L276.023 21.266Z" fill="#9E9E9E"/>
</svg>
