<svg width="282" height="307" viewBox="0 0 282 307" fill="none" xmlns="http://www.w3.org/2000/svg">
<path d="M235.868 115.355H64.5443C63.1761 115.354 61.8645 114.81 60.8971 113.842C59.9297 112.875 59.3855 111.563 59.3839 110.195V52.3991C59.3855 51.031 59.9297 49.7194 60.8971 48.752C61.8645 47.7846 63.1761 47.2404 64.5443 47.2388H235.868C237.236 47.2403 238.548 47.7845 239.515 48.7519C240.482 49.7194 241.026 51.031 241.028 52.3991V110.195C241.026 111.563 240.482 112.875 239.515 113.842C238.548 114.81 237.236 115.354 235.868 115.355Z" fill="#3F3D56"/>
<path d="M131.629 62.7202H86.2177V67.8806H131.629V62.7202Z" fill="white"/>
<path d="M191.489 68.9126C193.199 68.9126 194.585 67.5264 194.585 65.8164C194.585 64.1064 193.199 62.7202 191.489 62.7202C189.779 62.7202 188.393 64.1064 188.393 65.8164C188.393 67.5264 189.779 68.9126 191.489 68.9126Z" fill="#37474F"/>
<path d="M201.809 68.9126C203.519 68.9126 204.906 67.5264 204.906 65.8164C204.906 64.1064 203.519 62.7202 201.809 62.7202C200.099 62.7202 198.713 64.1064 198.713 65.8164C198.713 67.5264 200.099 68.9126 201.809 68.9126Z" fill="#37474F"/>
<path d="M212.13 68.9126C213.84 68.9126 215.226 67.5264 215.226 65.8164C215.226 64.1064 213.84 62.7202 212.13 62.7202C210.42 62.7202 209.034 64.1064 209.034 65.8164C209.034 67.5264 210.42 68.9126 212.13 68.9126Z" fill="#37474F"/>
<path d="M235.868 188.632H64.5443C63.1761 188.631 61.8645 188.086 60.8971 187.119C59.9297 186.152 59.3855 184.84 59.3839 183.472V125.676C59.3855 124.308 59.9297 122.996 60.8971 122.029C61.8645 121.061 63.1761 120.517 64.5443 120.516H235.868C237.236 120.517 238.548 121.061 239.515 122.029C240.482 122.996 241.026 124.308 241.028 125.676V183.472C241.026 184.84 240.482 186.152 239.515 187.119C238.548 188.086 237.236 188.631 235.868 188.632Z" fill="#3F3D56"/>
<path d="M131.629 135.997H86.2177V141.157H131.629V135.997Z" fill="white"/>
<path d="M191.489 142.189C193.199 142.189 194.585 140.803 194.585 139.093C194.585 137.383 193.199 135.997 191.489 135.997C189.779 135.997 188.393 137.383 188.393 139.093C188.393 140.803 189.779 142.189 191.489 142.189Z" fill="#37474F"/>
<path d="M201.809 142.189C203.519 142.189 204.906 140.803 204.906 139.093C204.906 137.383 203.519 135.997 201.809 135.997C200.099 135.997 198.713 137.383 198.713 139.093C198.713 140.803 200.099 142.189 201.809 142.189Z" fill="#37474F"/>
<path d="M212.13 142.189C213.84 142.189 215.226 140.803 215.226 139.093C215.226 137.383 213.84 135.997 212.13 135.997C210.42 135.997 209.034 137.383 209.034 139.093C209.034 140.803 210.42 142.189 212.13 142.189Z" fill="#37474F"/>
<path d="M235.868 261.909H64.5443C63.1761 261.907 61.8645 261.363 60.8971 260.396C59.9297 259.428 59.3855 258.117 59.3839 256.749V198.953C59.3855 197.585 59.9297 196.273 60.8971 195.306C61.8645 194.338 63.1761 193.794 64.5443 193.792H235.868C237.236 193.794 238.548 194.338 239.515 195.306C240.482 196.273 241.026 197.585 241.028 198.953V256.749C241.026 258.117 240.482 259.428 239.515 260.396C238.548 261.363 237.236 261.907 235.868 261.909Z" fill="#3F3D56"/>
<path d="M131.629 209.274H86.2177V214.434H131.629V209.274Z" fill="white"/>
<path d="M191.489 215.466C193.199 215.466 194.585 214.08 194.585 212.37C194.585 210.66 193.199 209.274 191.489 209.274C189.779 209.274 188.393 210.66 188.393 212.37C188.393 214.08 189.779 215.466 191.489 215.466Z" fill="#37474F"/>
<path d="M201.809 215.466C203.519 215.466 204.906 214.08 204.906 212.37C204.906 210.66 203.519 209.274 201.809 209.274C200.099 209.274 198.713 210.66 198.713 212.37C198.713 214.08 200.099 215.466 201.809 215.466Z" fill="#37474F"/>
<path d="M212.13 215.466C213.84 215.466 215.226 214.08 215.226 212.37C215.226 210.66 213.84 209.274 212.13 209.274C210.42 209.274 209.034 210.66 209.034 212.37C209.034 214.08 210.42 215.466 212.13 215.466Z" fill="#37474F"/>
<path d="M173.388 306.766H0V238.408H2.06414V304.702H173.388V306.766Z" fill="#CCCCCC"/>
<path d="M108.367 0H281.755V68.3581H279.691V2.06414H108.367V0Z" fill="#CCCCCC"/>
</svg>
